<svg width="25" height="24" viewBox="0 0 25 24" fill="none" xmlns="http://www.w3.org/2000/svg">
<path fill-rule="evenodd" clip-rule="evenodd" d="M6.5 5C4.29086 5 2.5 6.79086 2.5 9V15C2.5 17.2091 4.29086 19 6.5 19H16.9571C19.1663 19 20.9571 17.2091 20.9571 15V14.9854C21.8275 14.8733 22.5 14.1295 22.5 13.2286V10.7714C22.5 9.87054 21.8275 9.12673 20.9571 9.01461V9C20.9571 6.79086 19.1663 5 16.9571 5H6.5ZM4.5 9C4.5 7.89543 5.39543 7 6.5 7H16.9571C18.0617 7 18.9571 7.89543 18.9571 9V15C18.9571 16.1046 18.0617 17 16.9571 17H6.5C5.39543 17 4.5 16.1046 4.5 15V9Z" fill="black"/>
</svg>
