<svg width="25" height="31" viewBox="0 0 25 31" fill="none" xmlns="http://www.w3.org/2000/svg">
<g filter="url(#filter0_d_3849_182846)">
<path fill-rule="evenodd" clip-rule="evenodd" d="M13.5004 3C13.5004 2.44772 13.0526 2 12.5004 2C11.9481 2 11.5004 2.44772 11.5004 3V3.57087C8.10823 4.05593 5.50035 6.97223 5.50035 10.4989L5.50035 14.4993C5.50035 14.4993 5.50036 14.4991 5.50035 14.4993C5.50025 14.5012 5.49957 14.5146 5.49524 14.5409C5.49003 14.5724 5.48079 14.6152 5.46553 14.6703C5.43461 14.782 5.38539 14.9211 5.31662 15.0855C5.17876 15.4151 4.9844 15.7947 4.76944 16.1776C4.3653 16.8975 4.16158 17.7554 4.31452 18.5712C4.4758 19.4316 5.02959 20.1819 5.97541 20.542C6.82032 20.8637 7.94498 21.1579 9.43021 21.333C9.46555 21.3637 9.50734 21.3987 9.55534 21.4371C9.70563 21.5574 9.92035 21.7132 10.1917 21.8682C10.7303 22.176 11.5266 22.5 12.5004 22.5C13.4741 22.5 14.2704 22.176 14.809 21.8682C15.0804 21.7132 15.2951 21.5574 15.4454 21.4371C15.4934 21.3987 15.5352 21.3637 15.5705 21.333C17.0557 21.1579 18.1804 20.8637 19.0253 20.542C19.9711 20.1819 20.5249 19.4316 20.6862 18.5712C20.8391 17.7554 20.6354 16.8975 20.2313 16.1776C20.0163 15.7947 19.8219 15.4151 19.6841 15.0855C19.6153 14.9211 19.5661 14.782 19.5352 14.6703C19.5199 14.6152 19.5107 14.5724 19.5055 14.5409C19.5011 14.5146 19.5005 14.5015 19.5004 14.4996C19.5004 14.4994 19.5004 14.4996 19.5004 14.4996L19.5004 14.4911V10.4994C19.5004 6.9728 16.8925 4.05601 13.5004 3.57088V3ZM7.50035 10.4989C7.50035 7.73772 9.73869 5.5 12.5004 5.5C15.2619 5.5 17.5004 7.73809 17.5004 10.4994V14.5C17.5004 14.9629 17.6738 15.4623 17.8389 15.8571C18.0183 16.2861 18.2534 16.74 18.4873 17.1566C18.7146 17.5616 18.7689 17.9444 18.7204 18.2027C18.6803 18.4166 18.5735 18.574 18.3136 18.6729C17.2387 19.0822 15.4243 19.5 12.5004 19.5C9.57642 19.5 7.76196 19.0822 6.6871 18.6729C6.42724 18.574 6.32036 18.4166 6.28028 18.2027C6.23185 17.9444 6.28606 17.5616 6.51344 17.1566C6.74729 16.74 6.98238 16.2861 7.16177 15.8571C7.3269 15.4623 7.50035 14.9629 7.50035 14.5V10.4989Z" fill="black"/>
</g>
<defs>
<filter id="filter0_d_3849_182846" x="-3.5" y="0" width="32" height="32" filterUnits="userSpaceOnUse" color-interpolation-filters="sRGB">
<feFlood flood-opacity="0" result="BackgroundImageFix"/>
<feColorMatrix in="SourceAlpha" type="matrix" values="0 0 0 0 0 0 0 0 0 0 0 0 0 0 0 0 0 0 127 0" result="hardAlpha"/>
<feOffset dy="4"/>
<feGaussianBlur stdDeviation="2"/>
<feComposite in2="hardAlpha" operator="out"/>
<feColorMatrix type="matrix" values="0 0 0 0 0 0 0 0 0 0 0 0 0 0 0 0 0 0 0.25 0"/>
<feBlend mode="normal" in2="BackgroundImageFix" result="effect1_dropShadow_3849_182846"/>
<feBlend mode="normal" in="SourceGraphic" in2="effect1_dropShadow_3849_182846" result="shape"/>
</filter>
</defs>
</svg>
