<svg width="27" height="31" viewBox="0 0 27 31" fill="none" xmlns="http://www.w3.org/2000/svg">
<g filter="url(#filter0_d_3849_182845)">
<path d="M14.5 3.57088C15.7071 3.74351 16.8149 4.22405 17.7412 4.93041L16.3089 6.36273C15.5083 5.81823 14.5413 5.5 13.5 5.5C10.7384 5.5 8.50002 7.73772 8.50002 10.4989V14.1716L5.33264 17.339C5.41495 16.9323 5.56696 16.5377 5.76911 16.1776C5.98407 15.7947 6.17843 15.4151 6.31629 15.0855C6.38506 14.9211 6.43428 14.782 6.46521 14.6703C6.48046 14.6152 6.4897 14.5724 6.49491 14.5409C6.49925 14.5146 6.49991 14.5015 6.50001 14.4996L6.50002 14.4917V10.4989C6.50002 6.97223 9.1079 4.05593 12.5 3.57087V3C12.5 2.44772 12.9477 2 13.5 2C14.0523 2 14.5 2.44772 14.5 3V3.57088Z" fill="black"/>
<path d="M18.4605 9.86792L20.1174 8.21103C20.3654 8.92807 20.5 9.69798 20.5 10.4994V14.4993C20.5 14.4993 20.5004 14.5124 20.5051 14.5409C20.5103 14.5724 20.5196 14.6152 20.5348 14.6703C20.5658 14.782 20.615 14.9211 20.6838 15.0855C20.8216 15.4151 21.016 15.7947 21.2309 16.1776C21.6351 16.8975 21.8388 17.7554 21.6859 18.5712C21.5246 19.4316 20.9708 20.1819 20.025 20.542C19.18 20.8637 18.0554 21.1579 16.5701 21.333C16.5348 21.3637 16.493 21.3987 16.445 21.4371C16.2947 21.5574 16.08 21.7132 15.8086 21.8682C15.2701 22.176 14.4738 22.5 13.5 22.5C12.5262 22.5 11.7299 22.176 11.1914 21.8682C10.92 21.7132 10.7053 21.5574 10.555 21.4371C10.507 21.3987 10.4652 21.3637 10.4299 21.333C9.27328 21.1966 8.33535 20.9881 7.57791 20.7505L9.21634 19.1121C10.2686 19.3356 11.6661 19.5 13.5 19.5C16.424 19.5 18.2384 19.0822 19.3133 18.6729C19.5731 18.574 19.68 18.4166 19.7201 18.2027C19.7685 17.9444 19.7143 17.5616 19.4869 17.1566C19.2531 16.74 19.018 16.2861 18.8386 15.8571C18.6735 15.4623 18.5 14.9629 18.5 14.5V10.4994C18.5 10.2855 18.4866 10.0747 18.4605 9.86792Z" fill="black"/>
<path d="M22.2071 3.29289C22.5976 3.68342 22.5976 4.31658 22.2071 4.70711L6.20711 20.7071C5.81658 21.0976 5.18342 21.0976 4.79289 20.7071C4.40237 20.3166 4.40237 19.6834 4.79289 19.2929L20.7929 3.29289C21.1834 2.90237 21.8166 2.90237 22.2071 3.29289Z" fill="black"/>
</g>
<defs>
<filter id="filter0_d_3849_182845" x="-2.5" y="0" width="32" height="32" filterUnits="userSpaceOnUse" color-interpolation-filters="sRGB">
<feFlood flood-opacity="0" result="BackgroundImageFix"/>
<feColorMatrix in="SourceAlpha" type="matrix" values="0 0 0 0 0 0 0 0 0 0 0 0 0 0 0 0 0 0 127 0" result="hardAlpha"/>
<feOffset dy="4"/>
<feGaussianBlur stdDeviation="2"/>
<feComposite in2="hardAlpha" operator="out"/>
<feColorMatrix type="matrix" values="0 0 0 0 0 0 0 0 0 0 0 0 0 0 0 0 0 0 0.25 0"/>
<feBlend mode="normal" in2="BackgroundImageFix" result="effect1_dropShadow_3849_182845"/>
<feBlend mode="normal" in="SourceGraphic" in2="effect1_dropShadow_3849_182845" result="shape"/>
</filter>
</defs>
</svg>
