<svg width="24" height="24" viewBox="0 0 24 24" fill="none" xmlns="http://www.w3.org/2000/svg">
<g id="bluetooth">
<g id="Icon">
<path fill-rule="evenodd" clip-rule="evenodd" d="M11.8233 2.10083C12.1674 1.93339 12.5768 1.97697 12.8779 2.21307L18.6171 6.71307C18.8514 6.89681 18.9917 7.17541 18.9997 7.47308C19.0077 7.77074 18.8826 8.0565 18.6585 8.25258C16.8719 9.81593 15.3788 10.9787 13.9697 12.0339L18.6207 15.716C18.861 15.9061 19.0008 16.196 19 16.5023C18.9993 16.8087 18.8582 17.0979 18.6171 17.2869L12.8779 21.7869C12.5768 22.023 12.1674 22.0666 11.8233 21.8992C11.4793 21.7317 11.2609 21.3826 11.2609 21V14.0433C9.86401 15.0887 8.40745 16.2223 6.65854 17.7526C6.24291 18.1163 5.61115 18.0742 5.24746 17.6585C4.88378 17.2429 4.9259 16.6111 5.34154 16.2474C7.40555 14.4414 9.0777 13.17 10.6812 11.9814L5.37934 7.78405C4.94632 7.44125 4.87319 6.81232 5.21599 6.37931C5.5588 5.94629 6.18773 5.87316 6.62074 6.21596L11.2609 9.88943V3.00001C11.2609 2.61737 11.4793 2.26827 11.8233 2.10083ZM13.2609 14.0236V18.9452L16.3842 16.4962L13.2609 14.0236ZM13.2609 10.064C14.2466 9.31739 15.2752 8.50949 16.4253 7.53605L13.2609 5.05485V10.064Z" fill="#0A1828"/>
</g>
</g>
</svg>
