<svg width="25" height="24" viewBox="0 0 25 24" fill="none" xmlns="http://www.w3.org/2000/svg">
<path fill-rule="evenodd" clip-rule="evenodd" d="M13.6094 4.20437C12.2803 3.3183 10.5 4.27108 10.5 5.86848V9.91933L8.12473 8.01909C7.69347 7.67408 7.06418 7.744 6.71917 8.17526C6.37416 8.60652 6.44408 9.23582 6.87534 9.58083L9.89926 12L6.87534 14.4191C6.44408 14.7641 6.37416 15.3934 6.71917 15.8247C7.06418 16.2559 7.69347 16.3258 8.12473 15.9808L10.5 14.0806V18.1314C10.5 19.7288 12.2803 20.6816 13.6094 19.7955L16.8067 17.6641C17.9941 16.8724 17.9941 15.1275 16.8067 14.3359L13.3028 12L16.8067 9.66406C17.9941 8.87241 17.9941 7.1275 16.8067 6.33586L13.6094 4.20437ZM15.6973 7.99996L12.5 10.1314V5.86848L15.6973 7.99996ZM15.6973 16L12.5 18.1314V13.8685L15.6973 16Z" fill="black"/>
</svg>
