<svg width="29" height="30" viewBox="0 0 29 30" fill="none" xmlns="http://www.w3.org/2000/svg">
<g filter="url(#filter0_d_3849_182841)">
<path d="M8.13636 3.81825C7.13868 3.81825 6.31818 4.63509 6.31818 5.6572V13.8013C6.31818 14.7075 7.4466 15.053 7.95844 14.3498L8.20787 14.007C8.65259 13.396 9.28622 13.0343 9.95455 12.9221V14.8253C9.85019 14.8864 9.75557 14.9703 9.67793 15.077L9.42849 15.4197C7.86202 17.5721 4.5 16.4364 4.5 13.8013V5.6572C4.5 3.64388 6.12159 2 8.13636 2H12.6818C14.6897 2 16.3071 3.63262 16.3181 5.63651H14.4999C14.4889 4.62408 13.6728 3.81825 12.6818 3.81825H8.13636Z" fill="black"/>
<path fill-rule="evenodd" clip-rule="evenodd" d="M21.0584 6.54563C22.9129 6.54563 24.5 7.98255 24.5 9.85577V19.4878C24.5 20.7114 23.6693 21.5614 22.7317 21.8664C21.7967 22.1706 20.6314 21.9789 19.8671 21.0472L17.9785 18.745C17.9134 18.6657 17.8083 18.6141 17.6818 18.6141C17.5553 18.6141 17.4502 18.6657 17.3851 18.745L15.4965 21.0472C14.7322 21.9789 13.5669 22.1706 12.6319 21.8664C11.6943 21.5614 10.8636 20.7114 10.8636 19.4878V9.85577C10.8636 7.98255 12.4508 6.54563 14.3052 6.54563H21.0584ZM22.6818 9.85577C22.6818 9.07691 22.0013 8.36389 21.0584 8.36389H14.3052C13.3623 8.36389 12.6818 9.07691 12.6818 9.85577V19.4878C12.6818 19.7884 12.8681 20.0312 13.1943 20.1373C13.5231 20.2443 13.8683 20.1653 14.0909 19.8939L15.9795 17.5918C16.8501 16.5305 18.5135 16.5305 19.3842 17.5918L21.2728 19.8939C21.4954 20.1653 21.8405 20.2443 22.1693 20.1373C22.4955 20.0312 22.6818 19.7884 22.6818 19.4878V9.85577Z" fill="black"/>
</g>
<defs>
<filter id="filter0_d_3849_182841" x="-1.5" y="0" width="32" height="32" filterUnits="userSpaceOnUse" color-interpolation-filters="sRGB">
<feFlood flood-opacity="0" result="BackgroundImageFix"/>
<feColorMatrix in="SourceAlpha" type="matrix" values="0 0 0 0 0 0 0 0 0 0 0 0 0 0 0 0 0 0 127 0" result="hardAlpha"/>
<feOffset dy="4"/>
<feGaussianBlur stdDeviation="2"/>
<feComposite in2="hardAlpha" operator="out"/>
<feColorMatrix type="matrix" values="0 0 0 0 0 0 0 0 0 0 0 0 0 0 0 0 0 0 0.25 0"/>
<feBlend mode="normal" in2="BackgroundImageFix" result="effect1_dropShadow_3849_182841"/>
<feBlend mode="normal" in="SourceGraphic" in2="effect1_dropShadow_3849_182841" result="shape"/>
</filter>
</defs>
</svg>
