<svg width="28" height="31" viewBox="0 0 28 31" fill="none" xmlns="http://www.w3.org/2000/svg">
<g filter="url(#filter0_d_3849_182842)">
<path d="M8.92857 1C6.51874 1 4.5 2.89041 4.5 5.30126V19.7948C4.5 22.9156 8.49131 24.0975 10.3679 21.7744L12.9247 18.6091C13.2108 18.2549 13.7892 18.2549 14.0753 18.6091L16.6321 21.7744C18.5087 24.0975 22.5 22.9156 22.5 19.7948V10.5C22.5 9.94772 22.0523 9.5 21.5 9.5C20.9477 9.5 20.5 9.94772 20.5 10.5V19.7948C20.5 20.8651 18.9837 21.5028 18.188 20.5177L15.6311 17.3523C14.5445 16.0071 12.4555 16.0071 11.3689 17.3523L8.81204 20.5177C8.01628 21.5028 6.5 20.8651 6.5 19.7948V5.30126C6.5 4.06564 7.55131 3 8.92857 3H16C16.5523 3 17 2.55228 17 2C17 1.44772 16.5523 1 16 1H8.92857Z" fill="black"/>
<path d="M20.5 2C20.5 1.44772 20.0523 1 19.5 1C18.9477 1 18.5 1.44772 18.5 2V4H16.5C15.9477 4 15.5 4.44772 15.5 5C15.5 5.55228 15.9477 6 16.5 6H18.5V8C18.5 8.55228 18.9477 9 19.5 9C20.0523 9 20.5 8.55228 20.5 8V6H22.5C23.0523 6 23.5 5.55228 23.5 5C23.5 4.44772 23.0523 4 22.5 4H20.5V2Z" fill="black"/>
</g>
<defs>
<filter id="filter0_d_3849_182842" x="-2.5" y="0" width="32" height="32" filterUnits="userSpaceOnUse" color-interpolation-filters="sRGB">
<feFlood flood-opacity="0" result="BackgroundImageFix"/>
<feColorMatrix in="SourceAlpha" type="matrix" values="0 0 0 0 0 0 0 0 0 0 0 0 0 0 0 0 0 0 127 0" result="hardAlpha"/>
<feOffset dy="4"/>
<feGaussianBlur stdDeviation="2"/>
<feComposite in2="hardAlpha" operator="out"/>
<feColorMatrix type="matrix" values="0 0 0 0 0 0 0 0 0 0 0 0 0 0 0 0 0 0 0.25 0"/>
<feBlend mode="normal" in2="BackgroundImageFix" result="effect1_dropShadow_3849_182842"/>
<feBlend mode="normal" in="SourceGraphic" in2="effect1_dropShadow_3849_182842" result="shape"/>
</filter>
</defs>
</svg>
