<svg width="25" height="30" viewBox="0 0 25 30" fill="none" xmlns="http://www.w3.org/2000/svg">
<g filter="url(#filter0_d_3849_182875)">
<path d="M13.6917 7.28995C14.0366 7.63203 14.0802 8.1631 13.821 8.5529C14.0751 8.63905 14.2888 8.82562 14.4061 9.07695C14.5704 9.42894 14.5161 9.84425 14.2667 10.1421L13.0104 11.6421C12.6558 12.0655 12.0251 12.1213 11.6017 11.7667C11.2214 11.4481 11.1377 10.9067 11.3816 10.493C11.0264 10.4508 10.7168 10.2204 10.5769 9.88461C10.4217 9.51196 10.5057 9.08249 10.79 8.79585L12.2775 7.29585C12.6664 6.9037 13.2996 6.90106 13.6917 7.28995Z" fill="black"/>
<path fill-rule="evenodd" clip-rule="evenodd" d="M5 9.5C5 5.35786 8.35786 2 12.5 2C16.6421 2 20 5.35786 20 9.5C20 12.2622 18.5066 14.674 16.2871 15.9748L15.5438 18.9479C15.3892 19.5662 14.8337 20 14.1963 20C14.0583 20 13.9174 20.0127 13.7624 20.0348C14.1874 20.1501 14.5 20.5385 14.5 21C14.5 21.5523 14.0523 22 13.5 22H11.5C10.9477 22 10.5 21.5523 10.5 21C10.5 20.5385 10.8126 20.1501 11.2376 20.0348C11.0826 20.0127 10.9417 20 10.8037 20C10.1663 20 9.61078 19.5662 9.45621 18.9479L8.71293 15.9748C6.49338 14.674 5 12.2622 5 9.5ZM12.5 4C9.46243 4 7 6.46243 7 9.5C7 11.6465 8.22943 13.5076 10.0271 14.4143C10.2867 14.5452 10.4764 14.7826 10.5469 15.0646L11.2874 18.0263C11.598 18.0584 11.8873 18.114 12.1314 18.161L12.1645 18.1674C12.2298 18.1799 12.292 18.1918 12.3538 18.2034C12.4356 18.2187 12.4835 18.222 12.5 18.222C12.5165 18.222 12.5644 18.2187 12.6462 18.2034C12.708 18.1918 12.7702 18.1799 12.8355 18.1674L12.8686 18.161C13.1127 18.114 13.402 18.0584 13.7126 18.0263L14.4531 15.0646C14.5236 14.7826 14.7133 14.5452 14.9729 14.4143C16.7706 13.5076 18 11.6465 18 9.5C18 6.46243 15.5376 4 12.5 4Z" fill="black"/>
</g>
<defs>
<filter id="filter0_d_3849_182875" x="-3.5" y="0" width="32" height="32" filterUnits="userSpaceOnUse" color-interpolation-filters="sRGB">
<feFlood flood-opacity="0" result="BackgroundImageFix"/>
<feColorMatrix in="SourceAlpha" type="matrix" values="0 0 0 0 0 0 0 0 0 0 0 0 0 0 0 0 0 0 127 0" result="hardAlpha"/>
<feOffset dy="4"/>
<feGaussianBlur stdDeviation="2"/>
<feComposite in2="hardAlpha" operator="out"/>
<feColorMatrix type="matrix" values="0 0 0 0 0 0 0 0 0 0 0 0 0 0 0 0 0 0 0.25 0"/>
<feBlend mode="normal" in2="BackgroundImageFix" result="effect1_dropShadow_3849_182875"/>
<feBlend mode="normal" in="SourceGraphic" in2="effect1_dropShadow_3849_182875" result="shape"/>
</filter>
</defs>
</svg>
