<svg width="26" height="30" viewBox="0 0 26 30" fill="none" xmlns="http://www.w3.org/2000/svg">
<g filter="url(#filter0_d_3849_182874)">
<path d="M12.5 2C14.4875 2 16.2945 2.77311 17.6366 4.03501L16.2214 5.45015C15.2421 4.54974 13.9352 4 12.5 4C9.46243 4 7 6.46243 7 9.5C7 10.9345 7.54913 12.2416 8.45003 13.2215L7.03512 14.6364C5.77375 13.2949 5 11.4882 5 9.5C5 5.35786 8.35786 2 12.5 2Z" fill="black"/>
<path d="M17.9975 9.33097L19.7512 7.57719C19.9135 8.19084 20 8.83532 20 9.5C20 12.2622 18.5066 14.674 16.2871 15.9748L15.5438 18.9479C15.3892 19.5662 14.8337 20 14.1963 20C14.0583 20 13.9174 20.0127 13.7624 20.0348C14.1874 20.1501 14.5 20.5385 14.5 21C14.5 21.5523 14.0523 22 13.5 22H11.5C10.9477 22 10.5 21.5523 10.5 21C10.5 20.5385 10.8126 20.1501 11.2376 20.0348C11.0826 20.0127 10.9417 20 10.8037 20C10.1663 20 9.61078 19.5662 9.45621 18.9479L9.24106 18.0874L10.8903 16.4381L11.2874 18.0263C11.598 18.0584 11.8873 18.114 12.1314 18.161L12.1645 18.1674C12.2298 18.1799 12.292 18.1918 12.3538 18.2034C12.4356 18.2187 12.4835 18.222 12.5 18.222C12.5165 18.222 12.5644 18.2187 12.6462 18.2034C12.708 18.1918 12.7702 18.1799 12.8355 18.1674L12.8686 18.161C13.1127 18.114 13.402 18.0584 13.7126 18.0263L14.4531 15.0646C14.5236 14.7826 14.7133 14.5452 14.9729 14.4143C16.7706 13.5076 18 11.6465 18 9.5C18 9.44345 17.9991 9.38711 17.9975 9.33097Z" fill="black"/>
<path d="M21.2071 3.29289C21.5976 3.68342 21.5976 4.31658 21.2071 4.70711L6.70711 19.2071C6.31658 19.5976 5.68342 19.5976 5.29289 19.2071C4.90237 18.8166 4.90237 18.1834 5.29289 17.7929L19.7929 3.29289C20.1834 2.90237 20.8166 2.90237 21.2071 3.29289Z" fill="black"/>
</g>
<defs>
<filter id="filter0_d_3849_182874" x="-3.5" y="0" width="32" height="32" filterUnits="userSpaceOnUse" color-interpolation-filters="sRGB">
<feFlood flood-opacity="0" result="BackgroundImageFix"/>
<feColorMatrix in="SourceAlpha" type="matrix" values="0 0 0 0 0 0 0 0 0 0 0 0 0 0 0 0 0 0 127 0" result="hardAlpha"/>
<feOffset dy="4"/>
<feGaussianBlur stdDeviation="2"/>
<feComposite in2="hardAlpha" operator="out"/>
<feColorMatrix type="matrix" values="0 0 0 0 0 0 0 0 0 0 0 0 0 0 0 0 0 0 0.25 0"/>
<feBlend mode="normal" in2="BackgroundImageFix" result="effect1_dropShadow_3849_182874"/>
<feBlend mode="normal" in="SourceGraphic" in2="effect1_dropShadow_3849_182874" result="shape"/>
</filter>
</defs>
</svg>
