<svg width="29" height="30" viewBox="0 0 29 30" fill="none" xmlns="http://www.w3.org/2000/svg">
<g filter="url(#filter0_d_3849_182837)">
<path d="M18.1754 10.7375C18.5827 10.3644 18.6105 9.73188 18.2375 9.3246C17.8644 8.91732 17.2319 8.88954 16.8246 9.26255L13.1325 12.644L12.1754 11.7674C11.7681 11.3944 11.1356 11.4221 10.7626 11.8294C10.3895 12.2367 10.4173 12.8693 10.8246 13.2423L12.4571 14.7374C12.8393 15.0875 13.4257 15.0875 13.8079 14.7374L18.1754 10.7375Z" fill="black"/>
<path fill-rule="evenodd" clip-rule="evenodd" d="M14.5 2C8.97715 2 4.5 6.47715 4.5 12C4.5 17.5228 8.97715 22 14.5 22C20.0228 22 24.5 17.5228 24.5 12C24.5 6.47715 20.0228 2 14.5 2ZM6.5 12C6.5 7.58172 10.0817 4 14.5 4C18.9183 4 22.5 7.58172 22.5 12C22.5 16.4183 18.9183 20 14.5 20C10.0817 20 6.5 16.4183 6.5 12Z" fill="black"/>
</g>
<defs>
<filter id="filter0_d_3849_182837" x="-1.5" y="0" width="32" height="32" filterUnits="userSpaceOnUse" color-interpolation-filters="sRGB">
<feFlood flood-opacity="0" result="BackgroundImageFix"/>
<feColorMatrix in="SourceAlpha" type="matrix" values="0 0 0 0 0 0 0 0 0 0 0 0 0 0 0 0 0 0 127 0" result="hardAlpha"/>
<feOffset dy="4"/>
<feGaussianBlur stdDeviation="2"/>
<feComposite in2="hardAlpha" operator="out"/>
<feColorMatrix type="matrix" values="0 0 0 0 0 0 0 0 0 0 0 0 0 0 0 0 0 0 0.25 0"/>
<feBlend mode="normal" in2="BackgroundImageFix" result="effect1_dropShadow_3849_182837"/>
<feBlend mode="normal" in="SourceGraphic" in2="effect1_dropShadow_3849_182837" result="shape"/>
</filter>
</defs>
</svg>
