<svg width="27" height="29" viewBox="0 0 27 29" fill="none" xmlns="http://www.w3.org/2000/svg">
<g filter="url(#filter0_d_3849_182839)">
<path fill-rule="evenodd" clip-rule="evenodd" d="M8.5 3C6.29086 3 4.5 4.79086 4.5 7V17C4.5 19.2091 6.29086 21 8.5 21H18.5C20.7091 21 22.5 19.2091 22.5 17V7C22.5 4.79086 20.7091 3 18.5 3H8.5ZM6.5 7C6.5 5.89543 7.39543 5 8.5 5H18.5C19.6046 5 20.5 5.89543 20.5 7V17C20.5 18.1046 19.6046 19 18.5 19H8.5C7.39543 19 6.5 18.1046 6.5 17V7Z" fill="black"/>
</g>
<defs>
<filter id="filter0_d_3849_182839" x="-2.5" y="0" width="32" height="32" filterUnits="userSpaceOnUse" color-interpolation-filters="sRGB">
<feFlood flood-opacity="0" result="BackgroundImageFix"/>
<feColorMatrix in="SourceAlpha" type="matrix" values="0 0 0 0 0 0 0 0 0 0 0 0 0 0 0 0 0 0 127 0" result="hardAlpha"/>
<feOffset dy="4"/>
<feGaussianBlur stdDeviation="2"/>
<feComposite in2="hardAlpha" operator="out"/>
<feColorMatrix type="matrix" values="0 0 0 0 0 0 0 0 0 0 0 0 0 0 0 0 0 0 0.25 0"/>
<feBlend mode="normal" in2="BackgroundImageFix" result="effect1_dropShadow_3849_182839"/>
<feBlend mode="normal" in="SourceGraphic" in2="effect1_dropShadow_3849_182839" result="shape"/>
</filter>
</defs>
</svg>
