<svg width="29" height="30" viewBox="0 0 29 30" fill="none" xmlns="http://www.w3.org/2000/svg">
<g filter="url(#filter0_d_3849_182833)">
<path d="M14.5 10.75C13.8096 10.75 13.25 11.3096 13.25 12C13.25 12.6904 13.8096 13.25 14.5 13.25C15.1904 13.25 15.75 12.6904 15.75 12C15.75 11.3096 15.1904 10.75 14.5 10.75Z" fill="black"/>
<path d="M17.75 12C17.75 11.3096 18.3096 10.75 19 10.75C19.6904 10.75 20.25 11.3096 20.25 12C20.25 12.6904 19.6904 13.25 19 13.25C18.3096 13.25 17.75 12.6904 17.75 12Z" fill="black"/>
<path d="M10 10.75C9.30964 10.75 8.75 11.3096 8.75 12C8.75 12.6904 9.30964 13.25 10 13.25C10.6904 13.25 11.25 12.6904 11.25 12C11.25 11.3096 10.6904 10.75 10 10.75Z" fill="black"/>
<path fill-rule="evenodd" clip-rule="evenodd" d="M14.5 2C8.97715 2 4.5 6.47715 4.5 12C4.5 17.5228 8.97715 22 14.5 22C20.0228 22 24.5 17.5228 24.5 12C24.5 6.47715 20.0228 2 14.5 2ZM6.5 12C6.5 7.58172 10.0817 4 14.5 4C18.9183 4 22.5 7.58172 22.5 12C22.5 16.4183 18.9183 20 14.5 20C10.0817 20 6.5 16.4183 6.5 12Z" fill="black"/>
</g>
<defs>
<filter id="filter0_d_3849_182833" x="-1.5" y="0" width="32" height="32" filterUnits="userSpaceOnUse" color-interpolation-filters="sRGB">
<feFlood flood-opacity="0" result="BackgroundImageFix"/>
<feColorMatrix in="SourceAlpha" type="matrix" values="0 0 0 0 0 0 0 0 0 0 0 0 0 0 0 0 0 0 127 0" result="hardAlpha"/>
<feOffset dy="4"/>
<feGaussianBlur stdDeviation="2"/>
<feComposite in2="hardAlpha" operator="out"/>
<feColorMatrix type="matrix" values="0 0 0 0 0 0 0 0 0 0 0 0 0 0 0 0 0 0 0.25 0"/>
<feBlend mode="normal" in2="BackgroundImageFix" result="effect1_dropShadow_3849_182833"/>
<feBlend mode="normal" in="SourceGraphic" in2="effect1_dropShadow_3849_182833" result="shape"/>
</filter>
</defs>
</svg>
