<svg width="27" height="24" viewBox="0 0 27 24" fill="none" xmlns="http://www.w3.org/2000/svg">
<g filter="url(#filter0_d_3849_182835)">
<path d="M4 12C4 12.8284 4.67157 13.5 5.5 13.5C6.32843 13.5 7 12.8284 7 12C7 11.1716 6.32843 10.5 5.5 10.5C4.67157 10.5 4 11.1716 4 12Z" fill="black"/>
<path d="M13.5 13.5C12.6716 13.5 12 12.8284 12 12C12 11.1716 12.6716 10.5 13.5 10.5C14.3284 10.5 15 11.1716 15 12C15 12.8284 14.3284 13.5 13.5 13.5Z" fill="black"/>
<path d="M21.5 13.5C20.6716 13.5 20 12.8284 20 12C20 11.1716 20.6716 10.5 21.5 10.5C22.3284 10.5 23 11.1716 23 12C23 12.8284 22.3284 13.5 21.5 13.5Z" fill="black"/>
</g>
<defs>
<filter id="filter0_d_3849_182835" x="-2.5" y="0" width="32" height="32" filterUnits="userSpaceOnUse" color-interpolation-filters="sRGB">
<feFlood flood-opacity="0" result="BackgroundImageFix"/>
<feColorMatrix in="SourceAlpha" type="matrix" values="0 0 0 0 0 0 0 0 0 0 0 0 0 0 0 0 0 0 127 0" result="hardAlpha"/>
<feOffset dy="4"/>
<feGaussianBlur stdDeviation="2"/>
<feComposite in2="hardAlpha" operator="out"/>
<feColorMatrix type="matrix" values="0 0 0 0 0 0 0 0 0 0 0 0 0 0 0 0 0 0 0.25 0"/>
<feBlend mode="normal" in2="BackgroundImageFix" result="effect1_dropShadow_3849_182835"/>
<feBlend mode="normal" in="SourceGraphic" in2="effect1_dropShadow_3849_182835" result="shape"/>
</filter>
</defs>
</svg>
