<svg width="25" height="30" viewBox="0 0 25 30" fill="none" xmlns="http://www.w3.org/2000/svg">
<g filter="url(#filter0_d_3849_182834)">
<path d="M14 4C14 4.82843 13.3284 5.5 12.5 5.5C11.6716 5.5 11 4.82843 11 4C11 3.17157 11.6716 2.5 12.5 2.5C13.3284 2.5 14 3.17157 14 4Z" fill="black"/>
<path d="M14 12C14 12.8284 13.3284 13.5 12.5 13.5C11.6716 13.5 11 12.8284 11 12C11 11.1716 11.6716 10.5 12.5 10.5C13.3284 10.5 14 11.1716 14 12Z" fill="black"/>
<path d="M12.5 21.5C13.3284 21.5 14 20.8284 14 20C14 19.1716 13.3284 18.5 12.5 18.5C11.6716 18.5 11 19.1716 11 20C11 20.8284 11.6716 21.5 12.5 21.5Z" fill="black"/>
</g>
<defs>
<filter id="filter0_d_3849_182834" x="-3.5" y="0" width="32" height="32" filterUnits="userSpaceOnUse" color-interpolation-filters="sRGB">
<feFlood flood-opacity="0" result="BackgroundImageFix"/>
<feColorMatrix in="SourceAlpha" type="matrix" values="0 0 0 0 0 0 0 0 0 0 0 0 0 0 0 0 0 0 127 0" result="hardAlpha"/>
<feOffset dy="4"/>
<feGaussianBlur stdDeviation="2"/>
<feComposite in2="hardAlpha" operator="out"/>
<feColorMatrix type="matrix" values="0 0 0 0 0 0 0 0 0 0 0 0 0 0 0 0 0 0 0.25 0"/>
<feBlend mode="normal" in2="BackgroundImageFix" result="effect1_dropShadow_3849_182834"/>
<feBlend mode="normal" in="SourceGraphic" in2="effect1_dropShadow_3849_182834" result="shape"/>
</filter>
</defs>
</svg>
