<svg width="29" height="31" viewBox="0 0 29 31" fill="none" xmlns="http://www.w3.org/2000/svg">
<g filter="url(#filter0_d_3849_182836)">
<path d="M19.2071 13.7071L15.2071 17.7071C14.8166 18.0976 14.1834 18.0976 13.7929 17.7071L9.79289 13.7071C9.40237 13.3166 9.40237 12.6834 9.79289 12.2929C10.1834 11.9024 10.8166 11.9024 11.2071 12.2929L13.5 14.5858V3C13.5 2.44771 13.9477 2 14.5 2C15.0523 2 15.5 2.44771 15.5 3V14.5858L17.7929 12.2929C18.1834 11.9024 18.8166 11.9024 19.2071 12.2929C19.5976 12.6834 19.5976 13.3166 19.2071 13.7071Z" fill="black"/>
<path d="M6.5 17.5C6.5 16.9477 6.05228 16.5 5.5 16.5C4.94772 16.5 4.5 16.9477 4.5 17.5V19C4.5 21.2091 6.29086 23 8.5 23H20.5C22.7091 23 24.5 21.2091 24.5 19V17.5C24.5 16.9477 24.0523 16.5 23.5 16.5C22.9477 16.5 22.5 16.9477 22.5 17.5V19C22.5 20.1046 21.6046 21 20.5 21H8.5C7.39543 21 6.5 20.1046 6.5 19V17.5Z" fill="black"/>
</g>
<defs>
<filter id="filter0_d_3849_182836" x="-1.5" y="0" width="32" height="32" filterUnits="userSpaceOnUse" color-interpolation-filters="sRGB">
<feFlood flood-opacity="0" result="BackgroundImageFix"/>
<feColorMatrix in="SourceAlpha" type="matrix" values="0 0 0 0 0 0 0 0 0 0 0 0 0 0 0 0 0 0 127 0" result="hardAlpha"/>
<feOffset dy="4"/>
<feGaussianBlur stdDeviation="2"/>
<feComposite in2="hardAlpha" operator="out"/>
<feColorMatrix type="matrix" values="0 0 0 0 0 0 0 0 0 0 0 0 0 0 0 0 0 0 0.25 0"/>
<feBlend mode="normal" in2="BackgroundImageFix" result="effect1_dropShadow_3849_182836"/>
<feBlend mode="normal" in="SourceGraphic" in2="effect1_dropShadow_3849_182836" result="shape"/>
</filter>
</defs>
</svg>
