<svg width="24" height="24" viewBox="0 0 24 24" fill="none" xmlns="http://www.w3.org/2000/svg">
<g id="email">
<g id="Icon">
<path d="M5 4C3.34315 4 2 5.34315 2 7V17C2 18.6569 3.34315 20 5 20H19C20.6569 20 22 18.6569 22 17V7C22 5.34315 20.6569 4 19 4H5ZM4.09132 6.58194C4.24961 6.23843 4.59696 6 5 6H19C19.403 6 19.7504 6.23843 19.9087 6.58194L12.6139 12.2556C12.2528 12.5365 11.7472 12.5365 11.3861 12.2556L4.09132 6.58194ZM4 9.04464L7.61261 11.8544L4 14.865V9.04464ZM4.0829 17.3993L9.22853 13.1113L10.1582 13.8343C11.2415 14.6769 12.7585 14.6769 13.8418 13.8343L14.7715 13.1113L19.9171 17.3993C19.763 17.7529 19.4103 18 19 18H5C4.58966 18 4.23705 17.7529 4.0829 17.3993ZM20 14.865L16.3874 11.8544L20 9.04464V14.865Z" fill="#0A1828"/>
</g>
</g>
</svg>
