<svg width="30" height="30" viewBox="0 0 30 30" fill="none" xmlns="http://www.w3.org/2000/svg">
<g filter="url(#filter0_d_3849_182830)">
<path d="M14.5 4C10.0817 4 6.5 7.58172 6.5 12C6.5 16.4183 10.0817 20 14.5 20C18.9183 20 22.5 16.4183 22.5 12C22.5 11.5446 22.462 11.0988 22.3893 10.6655C22.298 10.1208 22.6654 9.60516 23.2101 9.51378C23.7548 9.4224 24.2704 9.78987 24.3618 10.3345C24.4528 10.8768 24.5 11.4333 24.5 12C24.5 17.5228 20.0228 22 14.5 22C8.97715 22 4.5 17.5228 4.5 12C4.5 6.47715 8.97715 2 14.5 2C16.0947 2 17.6049 2.37401 18.945 3.04001C19.4396 3.28579 19.6413 3.88597 19.3955 4.38055C19.1497 4.87513 18.5495 5.07682 18.055 4.83103C16.9852 4.2994 15.779 4 14.5 4Z" fill="black"/>
<path d="M22.5 3C23.0523 3 23.5 3.44772 23.5 4V5H24.5C25.0523 5 25.5 5.44772 25.5 6C25.5 6.55228 25.0523 7 24.5 7H23.5V8C23.5 8.55228 23.0523 9 22.5 9C21.9477 9 21.5 8.55228 21.5 8V7H20.5C19.9477 7 19.5 6.55228 19.5 6C19.5 5.44772 19.9477 5 20.5 5H21.5V4C21.5 3.44772 21.9477 3 22.5 3Z" fill="black"/>
<path d="M11.7929 15.2929C12.1834 14.9024 12.8166 14.9024 13.2071 15.2929C13.9212 16.0069 15.0788 16.0069 15.7929 15.2929C16.1834 14.9024 16.8166 14.9024 17.2071 15.2929C17.5976 15.6834 17.5976 16.3166 17.2071 16.7071C15.712 18.2022 13.288 18.2022 11.7929 16.7071C11.4024 16.3166 11.4024 15.6834 11.7929 15.2929Z" fill="black"/>
<path d="M12.7 9.5C12.7 8.67157 12.0284 8 11.2 8C10.3716 8 9.70001 8.67157 9.70001 9.5C9.70001 10.3284 10.3716 11 11.2 11C12.0284 11 12.7 10.3284 12.7 9.5Z" fill="black"/>
<path d="M17.8 8C18.6284 8 19.3 8.67157 19.3 9.5C19.3 10.3284 18.6284 11 17.8 11C16.9716 11 16.3 10.3284 16.3 9.5C16.3 8.67157 16.9716 8 17.8 8Z" fill="black"/>
</g>
<defs>
<filter id="filter0_d_3849_182830" x="-1.5" y="0" width="32" height="32" filterUnits="userSpaceOnUse" color-interpolation-filters="sRGB">
<feFlood flood-opacity="0" result="BackgroundImageFix"/>
<feColorMatrix in="SourceAlpha" type="matrix" values="0 0 0 0 0 0 0 0 0 0 0 0 0 0 0 0 0 0 127 0" result="hardAlpha"/>
<feOffset dy="4"/>
<feGaussianBlur stdDeviation="2"/>
<feComposite in2="hardAlpha" operator="out"/>
<feColorMatrix type="matrix" values="0 0 0 0 0 0 0 0 0 0 0 0 0 0 0 0 0 0 0.25 0"/>
<feBlend mode="normal" in2="BackgroundImageFix" result="effect1_dropShadow_3849_182830"/>
<feBlend mode="normal" in="SourceGraphic" in2="effect1_dropShadow_3849_182830" result="shape"/>
</filter>
</defs>
</svg>
