<svg width="25" height="24" viewBox="0 0 25 24" fill="none" xmlns="http://www.w3.org/2000/svg">
<path d="M6.5 2C4.29086 2 2.5 3.79086 2.5 6V8C2.5 8.55228 2.94772 9 3.5 9C4.05228 9 4.5 8.55228 4.5 8V6C4.5 4.89543 5.39543 4 6.5 4H8.5C9.05228 4 9.5 3.55228 9.5 3C9.5 2.44772 9.05228 2 8.5 2H6.5Z" fill="black"/>
<path d="M18.5 2C20.7091 2 22.5 3.79086 22.5 6V8C22.5 8.55228 22.0523 9 21.5 9C20.9477 9 20.5 8.55228 20.5 8V6C20.5 4.89543 19.6046 4 18.5 4H16.5C15.9477 4 15.5 3.55228 15.5 3C15.5 2.44772 15.9477 2 16.5 2H18.5Z" fill="black"/>
<path d="M2.5 18C2.5 20.2091 4.29086 22 6.5 22H8.5C9.05228 22 9.5 21.5523 9.5 21C9.5 20.4477 9.05228 20 8.5 20H6.5C5.39543 20 4.5 19.1046 4.5 18V16C4.5 15.4477 4.05228 15 3.5 15C2.94772 15 2.5 15.4477 2.5 16V18Z" fill="black"/>
<path d="M18.5 22C20.7091 22 22.5 20.2091 22.5 18V16C22.5 15.4477 22.0523 15 21.5 15C20.9477 15 20.5 15.4477 20.5 16V18C20.5 19.1046 19.6046 20 18.5 20H16.5C15.9477 20 15.5 20.4477 15.5 21C15.5 21.5523 15.9477 22 16.5 22H18.5Z" fill="black"/>
<path d="M7.25 8.25C7.25 8.94036 7.80964 9.5 8.5 9.5C9.19036 9.5 9.75 8.94036 9.75 8.25C9.75 7.55964 9.19036 7 8.5 7C7.80964 7 7.25 7.55964 7.25 8.25Z" fill="black"/>
<path d="M16.5 9.5C15.8096 9.5 15.25 8.94036 15.25 8.25C15.25 7.55964 15.8096 7 16.5 7C17.1904 7 17.75 7.55964 17.75 8.25C17.75 8.94036 17.1904 9.5 16.5 9.5Z" fill="black"/>
<path d="M9.60557 15.5528C9.85256 15.0588 10.4532 14.8586 10.9472 15.1056C11.9247 15.5943 13.0753 15.5943 14.0528 15.1056C14.5468 14.8586 15.1474 15.0588 15.3944 15.5528C15.6414 16.0468 15.4412 16.6474 14.9472 16.8944C13.4067 17.6647 11.5933 17.6647 10.0528 16.8944C9.55881 16.6474 9.35858 16.0468 9.60557 15.5528Z" fill="black"/>
<path d="M13.3944 10.0528C13.1474 9.55881 12.5468 9.35858 12.0528 9.60557C11.5588 9.85256 11.3586 10.4532 11.6056 10.9472L12.1328 12.0017C12.0483 12.1484 12 12.3186 12 12.5C12 13.0523 12.4477 13.5 13 13.5H13.1764C14.0685 13.5 14.6486 12.5612 14.2497 11.7633L13.3944 10.0528Z" fill="black"/>
</svg>
