<svg width="28" height="30" viewBox="0 0 28 30" fill="none" xmlns="http://www.w3.org/2000/svg">
<g filter="url(#filter0_d_3849_182887)">
<path fill-rule="evenodd" clip-rule="evenodd" d="M23.496 2.90947C23.448 2.38119 22.9958 1.98232 22.4656 2.0006C16.282 2.21383 11.9802 5.47336 9.15281 9.37579C6.34298 13.254 4.94484 17.8158 4.51015 20.8586C4.43625 21.3759 4.77308 21.8628 5.28317 21.9762C5.79326 22.0896 6.30463 21.7911 6.45678 21.2912C6.54103 21.0143 6.62663 20.7253 6.71472 20.4279C7.26378 18.574 7.90954 16.3936 8.92952 14.8021C9.5103 13.8959 10.1406 13.3028 10.8273 13.0432C11.4766 12.7976 12.3412 12.7886 13.5529 13.3944C14.7704 14.0032 16.2746 13.5774 17.1001 12.5226C17.724 11.7253 17.9134 10.6795 17.5881 9.53411C18.7778 9.5075 20.0453 9.33348 21.1059 8.75182C21.9337 8.2979 22.6266 7.60354 23.0592 6.59852C23.4834 5.6131 23.6308 4.39213 23.496 2.90947ZM14.4473 11.6056C12.9745 10.8692 11.6188 10.7076 10.4031 11.076C10.5232 10.899 10.6463 10.7233 10.7724 10.5492C13.1772 7.23002 16.6527 4.54006 21.5432 4.06436C21.5299 4.82008 21.4042 5.38506 21.2222 5.80775C20.9778 6.37565 20.6082 6.74379 20.1443 6.9982C19.135 7.55167 17.6644 7.58622 16.0527 7.50139C15.6749 7.48151 15.3183 7.67645 15.1311 8.00514C14.944 8.33382 14.9582 8.73999 15.1681 9.05471C16.0045 10.3093 15.7462 11.0075 15.5251 11.29C15.2256 11.6726 14.7298 11.7468 14.4473 11.6056Z" fill="black"/>
</g>
<defs>
<filter id="filter0_d_3849_182887" x="-2.5" y="0" width="32" height="32" filterUnits="userSpaceOnUse" color-interpolation-filters="sRGB">
<feFlood flood-opacity="0" result="BackgroundImageFix"/>
<feColorMatrix in="SourceAlpha" type="matrix" values="0 0 0 0 0 0 0 0 0 0 0 0 0 0 0 0 0 0 127 0" result="hardAlpha"/>
<feOffset dy="4"/>
<feGaussianBlur stdDeviation="2"/>
<feComposite in2="hardAlpha" operator="out"/>
<feColorMatrix type="matrix" values="0 0 0 0 0 0 0 0 0 0 0 0 0 0 0 0 0 0 0.25 0"/>
<feBlend mode="normal" in2="BackgroundImageFix" result="effect1_dropShadow_3849_182887"/>
<feBlend mode="normal" in="SourceGraphic" in2="effect1_dropShadow_3849_182887" result="shape"/>
</filter>
</defs>
</svg>
