<svg width="30" height="30" viewBox="0 0 30 30" fill="none" xmlns="http://www.w3.org/2000/svg">
<g filter="url(#filter0_d_3849_182886)">
<path fill-rule="evenodd" clip-rule="evenodd" d="M25.4959 2.90947C25.4479 2.38119 24.9957 1.98232 24.4655 2.0006C18.2819 2.21383 13.9801 5.47336 11.1527 9.37579C8.34288 13.254 6.94474 17.8158 6.51005 20.8586C6.43615 21.3759 6.77298 21.8628 7.28307 21.9762C7.79316 22.0896 8.30453 21.7911 8.45667 21.2912C8.54091 21.0144 8.62648 20.7255 8.71454 20.4281C9.2636 18.5742 9.90944 16.3936 10.9294 14.8021C11.5102 13.8959 12.1405 13.3028 12.8272 13.0432C13.4765 12.7976 14.3411 12.7886 15.5528 13.3944C16.7703 14.0032 18.2745 13.5774 19.1 12.5226C19.7239 11.7253 19.9133 10.6795 19.588 9.53411C20.7777 9.5075 22.0452 9.33348 23.1058 8.75182C23.9336 8.2979 24.6265 7.60354 25.0591 6.59852C25.4833 5.6131 25.6307 4.39213 25.4959 2.90947ZM16.4472 11.6056C14.9744 10.8692 13.6187 10.7076 12.403 11.076C12.5231 10.899 12.6462 10.7233 12.7723 10.5492C15.1771 7.23002 18.6526 4.54006 23.5431 4.06436C23.5298 4.82008 23.4041 5.38506 23.2221 5.80775C22.9777 6.37565 22.6081 6.74379 22.1442 6.9982C21.1349 7.55167 19.6643 7.58622 18.0526 7.50139C17.6748 7.48151 17.3182 7.67645 17.131 8.00514C16.9439 8.33382 16.9581 8.73999 17.168 9.05471C18.0044 10.3093 17.7461 11.0075 17.525 11.29C17.2255 11.6726 16.7297 11.7468 16.4472 11.6056Z" fill="black"/>
<path d="M8.5 3.00001C8.5 2.44773 8.05229 2.00001 7.5 2.00001C6.94772 2.00001 6.5 2.44773 6.5 3.00001V4.00001H5.5C4.94772 4.00001 4.5 4.44773 4.5 5.00001C4.5 5.55229 4.94772 6.00001 5.5 6.00001H6.5V7.00001C6.5 7.55229 6.94772 8.00001 7.5 8.00001C8.05229 8.00001 8.5 7.55229 8.5 7.00001V6.00001H9.5C10.0523 6.00001 10.5 5.55229 10.5 5.00001C10.5 4.44773 10.0523 4.00001 9.5 4.00001H8.5V3.00001Z" fill="black"/>
</g>
<defs>
<filter id="filter0_d_3849_182886" x="-0.5" y="0" width="32" height="32" filterUnits="userSpaceOnUse" color-interpolation-filters="sRGB">
<feFlood flood-opacity="0" result="BackgroundImageFix"/>
<feColorMatrix in="SourceAlpha" type="matrix" values="0 0 0 0 0 0 0 0 0 0 0 0 0 0 0 0 0 0 127 0" result="hardAlpha"/>
<feOffset dy="4"/>
<feGaussianBlur stdDeviation="2"/>
<feComposite in2="hardAlpha" operator="out"/>
<feColorMatrix type="matrix" values="0 0 0 0 0 0 0 0 0 0 0 0 0 0 0 0 0 0 0.25 0"/>
<feBlend mode="normal" in2="BackgroundImageFix" result="effect1_dropShadow_3849_182886"/>
<feBlend mode="normal" in="SourceGraphic" in2="effect1_dropShadow_3849_182886" result="shape"/>
</filter>
</defs>
</svg>
