<svg width="25" height="27" viewBox="0 0 25 27" fill="none" xmlns="http://www.w3.org/2000/svg">
<g filter="url(#filter0_d_3849_182884)">
<path d="M4.5 6C4.5 5.44772 4.94772 5 5.5 5H19.5C20.0523 5 20.5 5.44772 20.5 6C20.5 6.55228 20.0523 7 19.5 7H5.5C4.94772 7 4.5 6.55228 4.5 6Z" fill="black"/>
<path d="M6.5 12C6.5 11.4477 6.94772 11 7.5 11H17.5C18.0523 11 18.5 11.4477 18.5 12C18.5 12.5523 18.0523 13 17.5 13H7.5C6.94772 13 6.5 12.5523 6.5 12Z" fill="black"/>
<path d="M9.5 17C8.94772 17 8.5 17.4477 8.5 18C8.5 18.5523 8.94772 19 9.5 19H15.5C16.0523 19 16.5 18.5523 16.5 18C16.5 17.4477 16.0523 17 15.5 17H9.5Z" fill="black"/>
</g>
<defs>
<filter id="filter0_d_3849_182884" x="-3.5" y="0" width="32" height="32" filterUnits="userSpaceOnUse" color-interpolation-filters="sRGB">
<feFlood flood-opacity="0" result="BackgroundImageFix"/>
<feColorMatrix in="SourceAlpha" type="matrix" values="0 0 0 0 0 0 0 0 0 0 0 0 0 0 0 0 0 0 127 0" result="hardAlpha"/>
<feOffset dy="4"/>
<feGaussianBlur stdDeviation="2"/>
<feComposite in2="hardAlpha" operator="out"/>
<feColorMatrix type="matrix" values="0 0 0 0 0 0 0 0 0 0 0 0 0 0 0 0 0 0 0.25 0"/>
<feBlend mode="normal" in2="BackgroundImageFix" result="effect1_dropShadow_3849_182884"/>
<feBlend mode="normal" in="SourceGraphic" in2="effect1_dropShadow_3849_182884" result="shape"/>
</filter>
</defs>
</svg>
