<svg width="25" height="24" viewBox="0 0 25 24" fill="none" xmlns="http://www.w3.org/2000/svg">
<path d="M8.50011 10C9.0524 10 9.50011 10.4477 9.50011 11V12H10.5001C11.0524 12 11.5001 12.4477 11.5001 13C11.5001 13.5523 11.0524 14 10.5001 14H9.50011V15C9.50011 15.5523 9.0524 16 8.50011 16C7.94783 16 7.50011 15.5523 7.50011 15V14H6.50011C5.94783 14 5.50011 13.5523 5.50011 13C5.50011 12.4477 5.94783 12 6.50011 12H7.50011V11C7.50011 10.4477 7.94783 10 8.50011 10Z" fill="black"/>
<path d="M16.5001 10C17.0524 10 17.5001 10.4477 17.5001 11C17.5001 11.5523 17.0524 12 16.5001 12C15.9478 12 15.5001 11.5523 15.5001 11C15.5001 10.4477 15.9478 10 16.5001 10Z" fill="black"/>
<path d="M17.5001 15C17.5001 14.4477 17.0524 14 16.5001 14C15.9478 14 15.5001 14.4477 15.5001 15C15.5001 15.5523 15.9478 16 16.5001 16C17.0524 16 17.5001 15.5523 17.5001 15Z" fill="black"/>
<path d="M18.5001 12C19.0524 12 19.5001 12.4477 19.5001 13C19.5001 13.5523 19.0524 14 18.5001 14C17.9478 14 17.5001 13.5523 17.5001 13C17.5001 12.4477 17.9478 12 18.5001 12Z" fill="black"/>
<path d="M15.5001 13C15.5001 12.4477 15.0524 12 14.5001 12C13.9478 12 13.5001 12.4477 13.5001 13C13.5001 13.5523 13.9478 14 14.5001 14C15.0524 14 15.5001 13.5523 15.5001 13Z" fill="black"/>
<path fill-rule="evenodd" clip-rule="evenodd" d="M16.5001 2.99997C16.5 2.44769 16.0523 1.99999 15.5 2C14.9477 2.00001 14.5 2.44774 14.5001 3.00003C14.5001 3.17334 14.4398 3.45556 14.2885 3.66571C14.1739 3.82487 13.9742 4 13.5001 4C12.9703 4 12.4656 4.10956 12.0512 4.39767C11.6185 4.69848 11.3897 5.12054 11.2985 5.53514C11.2756 5.6392 11.261 5.74337 11.2535 5.84673C6.92237 5.51731 2.98634 8.46986 2.12582 12.7724L1.90274 13.8878C1.60737 15.3647 1.87307 16.8986 2.64794 18.19C4.05738 20.5391 6.86857 21.649 9.50262 20.8964L10.8751 20.5043C11.9372 20.2008 13.063 20.2008 14.1251 20.5043L15.4976 20.8964C18.1317 21.649 20.9428 20.5391 22.3523 18.19C23.1272 16.8986 23.3928 15.3647 23.0975 13.8878L22.8744 12.7724C22.0701 8.75069 18.5786 5.90848 14.589 5.82364C15.1609 5.62282 15.6008 5.266 15.9116 4.83429C16.3603 4.21111 16.5001 3.49333 16.5001 2.99997ZM12.1402 7.93301C12.3657 8.01992 12.6219 8.02529 12.8602 7.933C13.0981 7.92308 13.3357 7.90333 13.5725 7.87374C17.0277 7.44184 20.2303 9.75021 20.9132 13.1647L21.1363 14.2801C21.3341 15.269 21.1562 16.2962 20.6373 17.161C19.6935 18.7341 17.8109 19.4774 16.047 18.9734L14.6746 18.5813C13.2534 18.1752 11.7469 18.1752 10.3257 18.5813L8.95317 18.9734C7.18928 19.4774 5.30676 18.7341 4.36293 17.161C3.84403 16.2962 3.66611 15.269 3.8639 14.2801L4.08698 13.1647C4.76987 9.75021 7.97257 7.44184 11.4278 7.87374C11.6645 7.90334 11.9022 7.92309 12.1402 7.93301Z" fill="black"/>
</svg>
