<svg width="25" height="24" viewBox="0 0 25 24" fill="none" xmlns="http://www.w3.org/2000/svg">
<path fill-rule="evenodd" clip-rule="evenodd" d="M12.5001 3C6.9773 3 2.50015 7.47715 2.50015 13V15.9841C2.49995 15.9956 2.49995 16.007 2.50015 16.0183V18.4118C2.50015 19.8412 3.65894 21 5.08838 21C6.51782 21 7.67662 19.8412 7.67662 18.4118V16.2507C7.67662 14.3089 5.96177 13.4095 4.50015 13.7078V13C4.50015 8.58172 8.08187 5 12.5001 5C16.9184 5 20.5001 8.58172 20.5001 13V13.6972C19.039 13.3985 17.3237 14.2952 17.3237 16.2389V18.4118C17.3237 18.8882 17.4524 19.3346 17.677 19.718C16.7919 20.1581 15.584 20.5 14.0001 20.5C13.4479 20.5 13.0001 20.9478 13.0001 21.5C13.0001 22.0523 13.4479 22.5 14.0001 22.5C16.444 22.5 18.2557 21.8106 19.4966 20.9669C19.6318 20.9887 19.7705 21 19.9119 21C21.3414 21 22.5001 19.8412 22.5001 18.4118V16.0178C22.5003 16.0068 22.5003 15.9958 22.5001 15.9847V13C22.5001 7.47715 18.023 3 12.5001 3ZM19.7521 18.978C19.8029 18.9923 19.8565 19 19.9119 19C20.2368 19 20.5001 18.7366 20.5001 18.4118V16.0882C20.459 15.8995 20.374 15.8038 20.2964 15.7481C20.1953 15.6756 20.046 15.6306 19.8761 15.6433C19.7062 15.6561 19.5653 15.723 19.4762 15.8098C19.4007 15.8833 19.3237 16.0063 19.3237 16.2389V18.4118C19.3237 18.631 19.4436 18.8222 19.6215 18.9234C19.6661 18.9384 19.7097 18.9567 19.7521 18.978ZM4.50015 18.4118V16.0927C4.54272 15.907 4.6276 15.8125 4.70537 15.7573C4.80692 15.6853 4.95617 15.641 5.12555 15.6544C5.29493 15.6678 5.43538 15.7349 5.52438 15.822C5.59998 15.8959 5.67662 16.0191 5.67662 16.2507V18.4118C5.67662 18.7366 5.41326 19 5.08838 19C4.76351 19 4.50015 18.7366 4.50015 18.4118Z" fill="black"/>
</svg>
