<svg width="31" height="31" viewBox="0 0 31 31" fill="none" xmlns="http://www.w3.org/2000/svg">
<g filter="url(#filter0_d_3849_182882)">
<path fill-rule="evenodd" clip-rule="evenodd" d="M17.7945 2.38506C16.4172 1.42096 14.5841 1.42096 13.2068 2.38506L6.32923 7.19936C5.17061 8.0104 4.52639 9.37297 4.63486 10.7831L5.33988 19.9483C5.47285 21.6769 7.03905 22.9333 8.75531 22.6881L11.9249 22.2353C13.4029 22.0241 14.5007 20.7584 14.5007 19.2654V18C14.5007 17.4477 14.9484 17 15.5007 17C16.0529 17 16.5007 17.4477 16.5007 18V19.2654C16.5007 20.7584 17.5984 22.0241 19.0764 22.2353L22.246 22.6881C23.9623 22.9333 25.5285 21.6769 25.6614 19.9483L26.3665 10.7831C26.4749 9.37297 25.8307 8.0104 24.6721 7.19936L17.7945 2.38506ZM14.3537 4.02352C15.0424 3.54148 15.9589 3.54148 16.6476 4.02352L23.5252 8.83783C24.1045 9.24334 24.4266 9.92463 24.3723 10.6297L23.6673 19.7949C23.623 20.3711 23.1009 20.7899 22.5289 20.7082L19.3592 20.2554C18.8666 20.185 18.5007 19.7631 18.5007 19.2654V18C18.5007 16.3432 17.1575 15 15.5007 15C13.8438 15 12.5007 16.3432 12.5007 18V19.2654C12.5007 19.7631 12.1347 20.185 11.6421 20.2554L8.47246 20.7082C7.90038 20.7899 7.37831 20.3711 7.33399 19.7949L6.62897 10.6297C6.57474 9.92463 6.89685 9.24334 7.47616 8.83783L14.3537 4.02352Z" fill="black"/>
</g>
<defs>
<filter id="filter0_d_3849_182882" x="-0.5" y="0" width="32" height="32" filterUnits="userSpaceOnUse" color-interpolation-filters="sRGB">
<feFlood flood-opacity="0" result="BackgroundImageFix"/>
<feColorMatrix in="SourceAlpha" type="matrix" values="0 0 0 0 0 0 0 0 0 0 0 0 0 0 0 0 0 0 127 0" result="hardAlpha"/>
<feOffset dy="4"/>
<feGaussianBlur stdDeviation="2"/>
<feComposite in2="hardAlpha" operator="out"/>
<feColorMatrix type="matrix" values="0 0 0 0 0 0 0 0 0 0 0 0 0 0 0 0 0 0 0.25 0"/>
<feBlend mode="normal" in2="BackgroundImageFix" result="effect1_dropShadow_3849_182882"/>
<feBlend mode="normal" in="SourceGraphic" in2="effect1_dropShadow_3849_182882" result="shape"/>
</filter>
</defs>
</svg>
