<svg width="21" height="20" viewBox="0 0 21 20" fill="none" xmlns="http://www.w3.org/2000/svg">
<path fill-rule="evenodd" clip-rule="evenodd" d="M0 3.63868C0 1.62909 1.62909 0 3.63868 0H11.6259C12.0204 0 12.3414 0.157037 12.5678 0.31534C12.7939 0.47333 12.9831 0.671944 13.1368 0.858536C13.4417 1.22847 13.7245 1.69841 13.9651 2.11171C14.0251 2.21476 14.0828 2.31474 14.1386 2.41154C14.3234 2.73199 14.4881 3.01764 14.6518 3.26493C14.7329 3.38747 14.8027 3.48328 14.8618 3.55556H16.0007C18.2102 3.55556 20 5.34674 20 7.55556V13C20 13.3271 19.8429 13.6175 19.6001 13.8C19.2352 13.3142 18.6543 13 18 13C17.2597 13 16.6134 13.4022 16.2676 14H16C14.3431 14 13 12.6569 13 11C13 9.34315 14.3431 8 16 8H18V7.55556C18 6.45067 17.105 5.55556 16.0007 5.55556H14.5203C14.5063 5.55585 14.4922 5.55585 14.4782 5.55556H2V14C2 15.1046 2.89543 16 4 16H13.5C13.748 16 13.9748 16.0902 14.1496 16.2397C14.0532 16.4741 14 16.7308 14 17C14 17.2692 14.0532 17.5259 14.1496 17.7603C13.9748 17.9098 13.748 18 13.5 18H4C1.79086 18 0 16.2091 0 14V3.63868ZM2.00207 3.55556H12.4895L12.3854 3.37515C12.3345 3.28679 12.2848 3.20056 12.2368 3.1181C11.9915 2.6968 11.782 2.35928 11.5934 2.13042C11.5437 2.07015 11.5041 2.0282 11.4748 2H3.63868C2.76154 2 2.04536 2.68916 2.00207 3.55556ZM18 10H16C15.4477 10 15 10.4477 15 11C15 11.5523 15.4477 12 16 12H18V10Z" fill="black"/>
<path d="M19 15C19 14.4477 18.5523 14 18 14C17.4477 14 17 14.4477 17 15V16H16C15.4477 16 15 16.4477 15 17C15 17.5523 15.4477 18 16 18H17V19C17 19.5523 17.4477 20 18 20C18.5523 20 19 19.5523 19 19V18H20C20.5523 18 21 17.5523 21 17C21 16.4477 20.5523 16 20 16H19V15Z" fill="black"/>
</svg>
