<svg width="22" height="20" viewBox="0 0 22 20" fill="none" xmlns="http://www.w3.org/2000/svg">
<path fill-rule="evenodd" clip-rule="evenodd" d="M0 4.5C0 2.29086 1.79086 0.5 4 0.5H18C20.2091 0.5 22 2.29086 22 4.5V12.25C22 12.8023 21.5523 13.25 21 13.25C20.4477 13.25 20 12.8023 20 12.25V7H2V15.5C2 16.6046 2.89543 17.5 4 17.5H13.5C14.0523 17.5 14.5 17.9477 14.5 18.5C14.5 19.0523 14.0523 19.5 13.5 19.5H4C1.79086 19.5 0 17.7091 0 15.5V4.5ZM2 5H20V4.5C20 3.39543 19.1046 2.5 18 2.5H4C2.89543 2.5 2 3.39543 2 4.5V5Z" fill="black"/>
<path d="M3 14C3 13.4477 3.44772 13 4 13H12C12.5523 13 13 13.4477 13 14C13 14.5523 12.5523 15 12 15H4C3.44772 15 3 14.5523 3 14Z" fill="black"/>
<path d="M20.4141 18.6644L21.7474 17.1644C22.0842 16.7855 22.0842 16.2145 21.7474 15.8356L20.4141 14.3356C20.0472 13.9229 19.4151 13.8857 19.0023 14.2526C18.6412 14.5736 18.5675 15.0975 18.8004 15.5H16C15.4477 15.5 15 15.9477 15 16.5C15 17.0523 15.4477 17.5 16 17.5H18.8004C18.5675 17.9025 18.6412 18.4264 19.0023 18.7474C19.4151 19.1143 20.0472 19.0771 20.4141 18.6644Z" fill="black"/>
</svg>
