<svg width="22" height="20" viewBox="0 0 22 20" fill="none" xmlns="http://www.w3.org/2000/svg">
<path d="M3 14C3 13.4477 3.44772 13 4 13H12C12.5523 13 13 13.4477 13 14C13 14.5523 12.5523 15 12 15H4C3.44772 15 3 14.5523 3 14Z" fill="black"/>
<path d="M15 13C14.4477 13 14 13.4477 14 14C14 14.5523 14.4477 15 15 15H17C17.5523 15 18 14.5523 18 14C18 13.4477 17.5523 13 17 13H15Z" fill="black"/>
<path fill-rule="evenodd" clip-rule="evenodd" d="M0 4.5C0 2.29086 1.79086 0.5 4 0.5H18C20.2091 0.5 22 2.29086 22 4.5V15.5C22 17.7091 20.2091 19.5 18 19.5H4C1.79086 19.5 0 17.7091 0 15.5V4.5ZM4 2.5C2.89543 2.5 2 3.39543 2 4.5V5H20V4.5C20 3.39543 19.1046 2.5 18 2.5H4ZM20 7H2V15.5C2 16.6046 2.89543 17.5 4 17.5H18C19.1046 17.5 20 16.6046 20 15.5V7Z" fill="black"/>
</svg>
