<svg width="19" height="21" viewBox="0 0 19 21" fill="none" xmlns="http://www.w3.org/2000/svg">
<path fill-rule="evenodd" clip-rule="evenodd" d="M9.46796 5.1102C10.9402 5.1102 12.1336 6.30366 12.1336 7.77586C12.1336 9.24807 10.9402 10.4415 9.46796 10.4415C7.99575 10.4415 6.8023 9.24807 6.8023 7.77586C6.8023 6.30366 7.99575 5.1102 9.46796 5.1102ZM10.1336 7.77586C10.1336 7.40823 9.83559 7.1102 9.46796 7.1102C9.10032 7.1102 8.8023 7.40823 8.8023 7.77586C8.8023 8.1435 9.10032 8.44152 9.46796 8.44152C9.83559 8.44152 10.1336 8.1435 10.1336 7.77586Z" fill="black"/>
<path fill-rule="evenodd" clip-rule="evenodd" d="M0.139648 4.94604C0.139648 2.73691 1.93051 0.946045 4.13965 0.946045H14.7963C17.0054 0.946045 18.7963 2.73691 18.7963 4.94604V10.6057C18.7963 11.1507 18.6873 11.6702 18.4899 12.1436L18.2097 14.2035C18.0988 15.0186 17.7528 15.7364 17.253 16.304C17.2398 16.3454 17.2237 16.3863 17.2047 16.4267L16.257 18.4353C15.1909 20.6951 12.3369 21.4351 10.307 19.9781L1.71716 13.8124C1.64481 13.7605 1.58146 13.7007 1.52743 13.635C0.67756 12.9015 0.139648 11.8164 0.139648 10.6057V4.94604ZM14.7963 14.6057C15.2576 14.6057 15.7007 14.5276 16.1131 14.3839C15.75 15.3303 14.7058 15.8826 13.6847 15.5839L10.341 14.6057H14.7963ZM2.83943 3.42632C2.41109 3.79313 2.13965 4.33789 2.13965 4.94604V10.6057C2.13965 11.2138 2.41109 11.7586 2.83943 12.1254C2.71307 11.958 2.63814 11.7495 2.63814 11.5236C2.63814 10.9713 3.08586 10.5236 3.63814 10.5236H5.3038C5.85609 10.5236 6.3038 10.9713 6.3038 11.5236C6.3038 12.0759 5.85609 12.5236 5.3038 12.5236H3.63814C3.61215 12.5236 3.58639 12.5226 3.5609 12.5207C3.74411 12.576 3.93841 12.6057 4.13965 12.6057H14.7963C14.9975 12.6057 15.1918 12.576 15.375 12.5207C15.3495 12.5226 15.3238 12.5236 15.2978 12.5236H13.6321C13.0798 12.5236 12.6321 12.0759 12.6321 11.5236C12.6321 10.9713 13.0798 10.5236 13.6321 10.5236H15.2978C15.8501 10.5236 16.2978 10.9713 16.2978 11.5236C16.2978 11.7495 16.2229 11.958 16.0965 12.1254C16.5248 11.7586 16.7963 11.2138 16.7963 10.6057V4.94604C16.7963 4.33789 16.5248 3.79313 16.0965 3.42632C16.2229 3.59376 16.2978 3.80219 16.2978 4.02812C16.2978 4.58041 15.8501 5.02812 15.2978 5.02812H13.6321C13.0798 5.02812 12.6321 4.58041 12.6321 4.02812C12.6321 3.47584 13.0798 3.02812 13.6321 3.02812H15.2978C15.3238 3.02812 15.3495 3.02911 15.375 3.03106C15.1918 2.97577 14.9975 2.94604 14.7963 2.94604H4.13965C3.93841 2.94604 3.74411 2.97577 3.5609 3.03106C3.58639 3.02911 3.61215 3.02812 3.63814 3.02812H5.3038C5.85609 3.02812 6.3038 3.47584 6.3038 4.02812C6.3038 4.58041 5.85609 5.02812 5.3038 5.02812H3.63814C3.08586 5.02812 2.63814 4.58041 2.63814 4.02812C2.63814 3.80219 2.71307 3.59376 2.83943 3.42632ZM14.4078 17.6629C13.9863 17.6797 13.5537 17.6294 13.1231 17.5034L8.33954 16.104L11.4732 18.3533C12.4635 19.0641 13.846 18.7291 14.4078 17.6629Z" fill="black"/>
</svg>
