<svg width="31" height="32" viewBox="0 0 31 32" fill="none" xmlns="http://www.w3.org/2000/svg">
<g filter="url(#filter0_d_3849_182877)">
<path d="M15.4993 5.99999C16.0516 5.99999 16.4993 6.4477 16.4993 6.99999V14C16.4993 14.5523 16.0516 15 15.4993 15C14.947 15 14.4993 14.5523 14.4993 14V6.99999C14.4993 6.4477 14.947 5.99999 15.4993 5.99999Z" fill="black"/>
<path d="M15.4993 18C14.8089 18 14.2493 17.4403 14.2493 16.75C14.2493 16.0596 14.8089 15.5 15.4993 15.5C16.1896 15.5 16.7493 16.0596 16.7493 16.75C16.7493 17.4403 16.1896 18 15.4993 18Z" fill="black"/>
<path fill-rule="evenodd" clip-rule="evenodd" d="M17.5064 1.00821C16.2652 0.288199 14.7334 0.288198 13.4922 1.00821L10.2436 2.8927L6.98367 4.7659C5.73952 5.48081 4.97363 6.80737 4.97657 8.2423L4.98428 11.9979V12.002L4.97657 15.7577C4.97363 17.1926 5.73952 18.5192 6.98367 19.2341L10.24 21.1052L10.2436 21.1073L13.4922 22.9918C14.7334 23.7118 16.2652 23.7118 17.5064 22.9918L20.755 21.1073L20.7586 21.1052L24.0149 19.2341C25.259 18.5192 26.0249 17.1926 26.022 15.7577L26.0143 12.002V11.9979L26.022 8.2423C26.0249 6.80737 25.259 5.48081 24.0149 4.7659L20.7586 2.89476L20.755 2.8927L17.5064 1.00821ZM14.4957 2.7382C15.1163 2.3782 15.8822 2.3782 16.5028 2.7382L19.755 4.62475L19.7586 4.6268L23.0184 6.5C23.6405 6.85745 24.0235 7.52073 24.022 8.2382L24.0143 11.9979V12.002L24.022 15.7618C24.0235 16.4792 23.6405 17.1425 23.0184 17.5L19.7586 19.3732L19.755 19.3752L16.5028 21.2618C15.8822 21.6218 15.1163 21.6218 14.4957 21.2618L11.2436 19.3752L7.98012 17.5C7.35804 17.1425 6.9751 16.4792 6.97657 15.7618L6.98428 12.002V11.9979L6.97657 8.23819C6.9751 7.52073 7.35804 6.85745 7.98012 6.5L11.24 4.6268L11.2436 4.62475L14.4957 2.7382Z" fill="black"/>
</g>
<defs>
<filter id="filter0_d_3849_182877" x="-0.5" y="0" width="32" height="32" filterUnits="userSpaceOnUse" color-interpolation-filters="sRGB">
<feFlood flood-opacity="0" result="BackgroundImageFix"/>
<feColorMatrix in="SourceAlpha" type="matrix" values="0 0 0 0 0 0 0 0 0 0 0 0 0 0 0 0 0 0 127 0" result="hardAlpha"/>
<feOffset dy="4"/>
<feGaussianBlur stdDeviation="2"/>
<feComposite in2="hardAlpha" operator="out"/>
<feColorMatrix type="matrix" values="0 0 0 0 0 0 0 0 0 0 0 0 0 0 0 0 0 0 0.25 0"/>
<feBlend mode="normal" in2="BackgroundImageFix" result="effect1_dropShadow_3849_182877"/>
<feBlend mode="normal" in="SourceGraphic" in2="effect1_dropShadow_3849_182877" result="shape"/>
</filter>
</defs>
</svg>
