<svg width="29" height="30" viewBox="0 0 29 30" fill="none" xmlns="http://www.w3.org/2000/svg">
<g filter="url(#filter0_d_3849_182879)">
<path d="M14.5 6C15.0523 6 15.5 6.44772 15.5 7V14C15.5 14.5523 15.0523 15 14.5 15C13.9477 15 13.5 14.5523 13.5 14V7C13.5 6.44772 13.9477 6 14.5 6Z" fill="black"/>
<path d="M13.25 16.75C13.25 17.4404 13.8096 18 14.5 18C15.1904 18 15.75 17.4404 15.75 16.75C15.75 16.0596 15.1904 15.5 14.5 15.5C13.8096 15.5 13.25 16.0596 13.25 16.75Z" fill="black"/>
<path fill-rule="evenodd" clip-rule="evenodd" d="M4.5 12C4.5 6.47715 8.97715 2 14.5 2C20.0228 2 24.5 6.47715 24.5 12C24.5 17.5228 20.0228 22 14.5 22C8.97715 22 4.5 17.5228 4.5 12ZM14.5 4C10.0817 4 6.5 7.58172 6.5 12C6.5 16.4183 10.0817 20 14.5 20C18.9183 20 22.5 16.4183 22.5 12C22.5 7.58172 18.9183 4 14.5 4Z" fill="black"/>
</g>
<defs>
<filter id="filter0_d_3849_182879" x="-1.5" y="0" width="32" height="32" filterUnits="userSpaceOnUse" color-interpolation-filters="sRGB">
<feFlood flood-opacity="0" result="BackgroundImageFix"/>
<feColorMatrix in="SourceAlpha" type="matrix" values="0 0 0 0 0 0 0 0 0 0 0 0 0 0 0 0 0 0 127 0" result="hardAlpha"/>
<feOffset dy="4"/>
<feGaussianBlur stdDeviation="2"/>
<feComposite in2="hardAlpha" operator="out"/>
<feColorMatrix type="matrix" values="0 0 0 0 0 0 0 0 0 0 0 0 0 0 0 0 0 0 0.25 0"/>
<feBlend mode="normal" in2="BackgroundImageFix" result="effect1_dropShadow_3849_182879"/>
<feBlend mode="normal" in="SourceGraphic" in2="effect1_dropShadow_3849_182879" result="shape"/>
</filter>
</defs>
</svg>
