<svg width="25" height="24" viewBox="0 0 25 24" fill="none" xmlns="http://www.w3.org/2000/svg">
<path d="M4.96185 18.1254L5.15884 19.1663C5.21086 19.4412 5.34209 19.691 5.53674 19.8856C6.09483 20.4437 7.02432 20.419 7.61283 19.8305L15.1281 12.3153C15.6227 11.8207 16.3118 11.5804 16.9819 11.6688C18.936 11.9265 20.8066 10.5168 21.1314 8.54174L21.2033 8.10391C21.6135 5.60917 19.6169 3.50226 17.1112 3.78562L16.6366 3.8393C14.5402 4.07638 13.0292 6.08925 13.4154 8.13019C13.5461 8.82081 13.3136 9.54928 12.798 10.0649L11.4507 11.4122C11.1206 11.7422 10.7206 11.9927 10.2838 12.1426L9.04945 12.5662C8.36558 12.801 7.8201 13.3464 7.58538 14.0303C7.38747 14.6069 6.96659 15.09 6.42024 15.3678L6.33584 15.4107C5.32424 15.9249 4.75737 17.0449 4.96185 18.1254Z" stroke="black" stroke-width="2" stroke-linecap="round"/>
<circle cx="1" cy="1" r="1" transform="matrix(0.707107 0.707107 0.707107 -0.707107 15.9355 7.65686)" fill="black"/>
</svg>
