<svg width="25" height="24" viewBox="0 0 25 24" fill="none" xmlns="http://www.w3.org/2000/svg">
<path d="M5.5 12C5.5 11.4477 5.94772 11 6.5 11H8.5C9.05228 11 9.5 11.4477 9.5 12C9.5 12.5523 9.05228 13 8.5 13H6.5C5.94772 13 5.5 12.5523 5.5 12Z" fill="black"/>
<path d="M11.5 11C10.9477 11 10.5 11.4477 10.5 12C10.5 12.5523 10.9477 13 11.5 13H13.5C14.0523 13 14.5 12.5523 14.5 12C14.5 11.4477 14.0523 11 13.5 11H11.5Z" fill="black"/>
<path d="M15.5 12C15.5 11.4477 15.9477 11 16.5 11H18.5C19.0523 11 19.5 11.4477 19.5 12C19.5 12.5523 19.0523 13 18.5 13H16.5C15.9477 13 15.5 12.5523 15.5 12Z" fill="black"/>
<path d="M18.5 17C19.0523 17 19.5 16.5523 19.5 16C19.5 15.4477 19.0523 15 18.5 15H17.5C16.9477 15 16.5 15.4477 16.5 16C16.5 16.5523 16.9477 17 17.5 17H18.5Z" fill="black"/>
<path d="M8.5 16C8.5 16.5523 8.05228 17 7.5 17H6.5C5.94772 17 5.5 16.5523 5.5 16C5.5 15.4477 5.94772 15 6.5 15H7.5C8.05228 15 8.5 15.4477 8.5 16Z" fill="black"/>
<path d="M10.5 15C9.94772 15 9.5 15.4477 9.5 16C9.5 16.5523 9.94772 17 10.5 17H15C15.5523 17 16 16.5523 16 16C16 15.4477 15.5523 15 15 15H10.5Z" fill="black"/>
<path fill-rule="evenodd" clip-rule="evenodd" d="M16.4999 4.49997C16.4999 3.94769 16.0522 3.49999 15.4999 3.5C14.9476 3.50001 14.4999 3.94774 14.4999 4.50003C14.4999 4.67334 14.4397 4.95556 14.2884 5.16571C14.1738 5.32487 13.9741 5.5 13.5 5.5C12.9702 5.5 12.4655 5.60956 12.0511 5.89767C11.6184 6.19848 11.3896 6.62054 11.2983 7.03514C11.2641 7.19087 11.2485 7.34687 11.2472 7.5H6.5C4.29086 7.5 2.5 9.29086 2.5 11.5V16.5C2.5 18.7091 4.29086 20.5 6.5 20.5H18.5C20.7091 20.5 22.5 18.7091 22.5 16.5V11.5C22.5 9.29086 20.7091 7.5 18.5 7.5H13.5C14.6259 7.5 15.4261 7.00847 15.9115 6.33429C16.3602 5.71111 16.5 4.99333 16.4999 4.49997ZM12.4799 9.5C12.4938 9.50029 12.5077 9.50029 12.5217 9.5H18.5C19.6046 9.5 20.5 10.3954 20.5 11.5V16.5C20.5 17.6046 19.6046 18.5 18.5 18.5H6.5C5.39543 18.5 4.5 17.6046 4.5 16.5V11.5C4.5 10.3954 5.39543 9.5 6.5 9.5H12.4799Z" fill="black"/>
</svg>
