<svg width="25" height="24" viewBox="0 0 25 24" fill="none" xmlns="http://www.w3.org/2000/svg">
<path fill-rule="evenodd" clip-rule="evenodd" d="M5.5 1.5C3.29086 1.5 1.5 3.29086 1.5 5.5V15.5C1.5 17.7091 3.29086 19.5 5.5 19.5H19.5C21.7091 19.5 23.5 17.7091 23.5 15.5V5.5C23.5 3.29086 21.7091 1.5 19.5 1.5H5.5ZM3.5 5.5C3.5 4.39543 4.39543 3.5 5.5 3.5H19.5C20.6046 3.5 21.5 4.39543 21.5 5.5V15.5C21.5 16.6046 20.6046 17.5 19.5 17.5H5.5C4.39543 17.5 3.5 16.6046 3.5 15.5V5.5Z" fill="black"/>
<path d="M2.5 20.5C1.94772 20.5 1.5 20.9477 1.5 21.5C1.5 22.0523 1.94772 22.5 2.5 22.5H22.5C23.0523 22.5 23.5 22.0523 23.5 21.5C23.5 20.9477 23.0523 20.5 22.5 20.5H2.5Z" fill="black"/>
</svg>
