<svg width="27" height="30" viewBox="0 0 27 30" fill="none" xmlns="http://www.w3.org/2000/svg">
<g filter="url(#filter0_d_3849_182872)">
<path d="M14.2076 4.22191C16.1602 2.26929 19.326 2.26929 21.2786 4.22191C23.2312 6.17453 23.2312 9.34036 21.2786 11.293L18.4502 14.1214C18.0597 14.5119 17.4265 14.5119 17.036 14.1214C16.6455 13.7309 16.6455 13.0977 17.036 12.7072L19.8644 9.87877C21.036 8.70719 21.036 6.8077 19.8644 5.63613C18.6928 4.46455 16.7933 4.46455 15.6218 5.63613L12.7933 8.46455C12.4028 8.85508 11.7697 8.85508 11.3791 8.46455C10.9886 8.07403 10.9886 7.44086 11.3791 7.05034L14.2076 4.22191Z" fill="black"/>
<path d="M9.96492 9.87877C10.3554 10.2693 10.3554 10.9025 9.96492 11.293L7.13649 14.1214C5.96492 15.293 5.96492 17.1925 7.13649 18.364C8.30806 19.5356 10.2076 19.5356 11.3791 18.364L14.2076 15.5356C14.5981 15.1451 15.2312 15.1451 15.6218 15.5356C16.0123 15.9261 16.0123 16.5593 15.6218 16.9498L12.7933 19.7783C10.8407 21.7309 7.6749 21.7309 5.72228 19.7783C3.76966 17.8256 3.76966 14.6598 5.72228 12.7072L8.55071 9.87877C8.94123 9.48824 9.57439 9.48824 9.96492 9.87877Z" fill="black"/>
<path d="M20.8644 15.5355C20.8644 16.0878 20.4167 16.5355 19.8644 16.5355H18.4502C18.1763 16.5355 17.9281 16.4254 17.7475 16.247C17.9259 16.4276 18.036 16.6757 18.036 16.9496V18.3639C18.036 18.9161 17.5883 19.3639 17.036 19.3639C16.4837 19.3639 16.036 18.9161 16.036 18.3639V16.9496C16.036 16.3974 16.4837 15.9496 17.036 15.9496C17.3099 15.9496 17.5581 16.0598 17.7387 16.2381C17.5603 16.0575 17.4502 15.8094 17.4502 15.5355C17.4502 14.9832 17.8979 14.5355 18.4502 14.5355H19.8644C20.4167 14.5355 20.8644 14.9832 20.8644 15.5355Z" fill="black"/>
<path d="M9.96494 4.63616C9.41266 4.63616 8.96494 5.08388 8.96494 5.63616V7.05037C8.96494 7.32428 9.07506 7.57246 9.25345 7.75306C9.07284 7.57466 8.82464 7.46453 8.55072 7.46453H7.13651C6.58423 7.46453 6.13651 7.91225 6.13651 8.46453C6.13651 9.01682 6.58423 9.46453 7.13651 9.46453H8.55072C9.10301 9.46453 9.55072 9.01682 9.55072 8.46453C9.55072 8.19063 9.4406 7.94244 9.26222 7.76184C9.44283 7.94024 9.69102 8.05037 9.96494 8.05037C10.5172 8.05037 10.9649 7.60266 10.9649 7.05037V5.63616C10.9649 5.08388 10.5172 4.63616 9.96494 4.63616Z" fill="black"/>
</g>
<defs>
<filter id="filter0_d_3849_182872" x="-2.5" y="0" width="32" height="32" filterUnits="userSpaceOnUse" color-interpolation-filters="sRGB">
<feFlood flood-opacity="0" result="BackgroundImageFix"/>
<feColorMatrix in="SourceAlpha" type="matrix" values="0 0 0 0 0 0 0 0 0 0 0 0 0 0 0 0 0 0 127 0" result="hardAlpha"/>
<feOffset dy="4"/>
<feGaussianBlur stdDeviation="2"/>
<feComposite in2="hardAlpha" operator="out"/>
<feColorMatrix type="matrix" values="0 0 0 0 0 0 0 0 0 0 0 0 0 0 0 0 0 0 0.25 0"/>
<feBlend mode="normal" in2="BackgroundImageFix" result="effect1_dropShadow_3849_182872"/>
<feBlend mode="normal" in="SourceGraphic" in2="effect1_dropShadow_3849_182872" result="shape"/>
</filter>
</defs>
</svg>
