<svg width="27" height="30" viewBox="0 0 27 30" fill="none" xmlns="http://www.w3.org/2000/svg">
<g filter="url(#filter0_d_3849_182873)">
<path d="M21.2786 4.22191C19.326 2.26929 16.1602 2.26929 14.2076 4.22191L11.3791 7.05034C10.9886 7.44086 10.9886 8.07403 11.3791 8.46455C11.7697 8.85508 12.4028 8.85508 12.7933 8.46455L15.6218 5.63613C16.7933 4.46455 18.6928 4.46455 19.8644 5.63613C21.036 6.8077 21.036 8.70719 19.8644 9.87877L17.036 12.7072C16.6455 13.0977 16.6455 13.7309 17.036 14.1214C17.4265 14.5119 18.0597 14.5119 18.4502 14.1214L21.2786 11.293C23.2312 9.34036 23.2312 6.17453 21.2786 4.22191Z" fill="black"/>
<path d="M15.6218 11.293C16.0123 10.9025 16.0123 10.2693 15.6218 9.87877C15.2312 9.48824 14.5981 9.48824 14.2076 9.87877L11.3791 12.7072C10.9886 13.0977 10.9886 13.7309 11.3791 14.1214C11.7697 14.5119 12.4028 14.5119 12.7933 14.1214L15.6218 11.293Z" fill="black"/>
<path d="M9.96492 11.293C10.3554 10.9025 10.3554 10.2693 9.96492 9.87877C9.57439 9.48824 8.94123 9.48824 8.55071 9.87877L5.72228 12.7072C3.76966 14.6598 3.76966 17.8256 5.72228 19.7783C7.6749 21.7309 10.8407 21.7309 12.7933 19.7783L15.6218 16.9498C16.0123 16.5593 16.0123 15.9261 15.6218 15.5356C15.2312 15.1451 14.5981 15.1451 14.2076 15.5356L11.3791 18.364C10.2076 19.5356 8.30806 19.5356 7.13649 18.364C5.96492 17.1925 5.96492 15.293 7.13649 14.1214L9.96492 11.293Z" fill="black"/>
</g>
<defs>
<filter id="filter0_d_3849_182873" x="-2.5" y="0" width="32" height="32" filterUnits="userSpaceOnUse" color-interpolation-filters="sRGB">
<feFlood flood-opacity="0" result="BackgroundImageFix"/>
<feColorMatrix in="SourceAlpha" type="matrix" values="0 0 0 0 0 0 0 0 0 0 0 0 0 0 0 0 0 0 127 0" result="hardAlpha"/>
<feOffset dy="4"/>
<feGaussianBlur stdDeviation="2"/>
<feComposite in2="hardAlpha" operator="out"/>
<feColorMatrix type="matrix" values="0 0 0 0 0 0 0 0 0 0 0 0 0 0 0 0 0 0 0.25 0"/>
<feBlend mode="normal" in2="BackgroundImageFix" result="effect1_dropShadow_3849_182873"/>
<feBlend mode="normal" in="SourceGraphic" in2="effect1_dropShadow_3849_182873" result="shape"/>
</filter>
</defs>
</svg>
