<svg width="25" height="24" viewBox="0 0 25 24" fill="none" xmlns="http://www.w3.org/2000/svg">
<path d="M13.5 15C13.5 14.4477 13.0523 14 12.5 14C11.9477 14 11.5 14.4477 11.5 15V17C11.5 17.5523 11.9477 18 12.5 18C13.0523 18 13.5 17.5523 13.5 17V15Z" fill="black"/>
<path fill-rule="evenodd" clip-rule="evenodd" d="M8.5 6.75C8.5 4.67893 10.1789 3 12.25 3C14.3211 3 16 4.67893 16 6.75V7.5C16 8.05228 16.4477 8.5 17 8.5C17.5523 8.5 18 8.05228 18 7.5V6.75C18 3.57436 15.4256 1 12.25 1C9.07436 1 6.5 3.57436 6.5 6.75V9C4.29086 9 2.5 10.7909 2.5 13V19C2.5 21.2091 4.29086 23 6.5 23H18.5C20.7091 23 22.5 21.2091 22.5 19V13C22.5 10.7909 20.7091 9 18.5 9H8.5V6.75ZM4.5 13C4.5 11.8954 5.39543 11 6.5 11H18.5C19.6046 11 20.5 11.8954 20.5 13V19C20.5 20.1046 19.6046 21 18.5 21H6.5C5.39543 21 4.5 20.1046 4.5 19V13Z" fill="black"/>
</svg>
