<svg width="29" height="30" viewBox="0 0 29 30" fill="none" xmlns="http://www.w3.org/2000/svg">
<g filter="url(#filter0_d_3849_182869)">
<path d="M11.5 11C10.9477 11 10.5 11.4477 10.5 12C10.5 12.5523 10.9477 13 11.5 13H17.5C18.0523 13 18.5 12.5523 18.5 12C18.5 11.4477 18.0523 11 17.5 11H11.5Z" fill="black"/>
<path fill-rule="evenodd" clip-rule="evenodd" d="M14.5 2C8.97715 2 4.5 6.47715 4.5 12C4.5 17.5228 8.97715 22 14.5 22C20.0228 22 24.5 17.5228 24.5 12C24.5 6.47715 20.0228 2 14.5 2ZM6.5 12C6.5 7.58172 10.0817 4 14.5 4C18.9183 4 22.5 7.58172 22.5 12C22.5 16.4183 18.9183 20 14.5 20C10.0817 20 6.5 16.4183 6.5 12Z" fill="black"/>
</g>
<defs>
<filter id="filter0_d_3849_182869" x="-1.5" y="0" width="32" height="32" filterUnits="userSpaceOnUse" color-interpolation-filters="sRGB">
<feFlood flood-opacity="0" result="BackgroundImageFix"/>
<feColorMatrix in="SourceAlpha" type="matrix" values="0 0 0 0 0 0 0 0 0 0 0 0 0 0 0 0 0 0 127 0" result="hardAlpha"/>
<feOffset dy="4"/>
<feGaussianBlur stdDeviation="2"/>
<feComposite in2="hardAlpha" operator="out"/>
<feColorMatrix type="matrix" values="0 0 0 0 0 0 0 0 0 0 0 0 0 0 0 0 0 0 0.25 0"/>
<feBlend mode="normal" in2="BackgroundImageFix" result="effect1_dropShadow_3849_182869"/>
<feBlend mode="normal" in="SourceGraphic" in2="effect1_dropShadow_3849_182869" result="shape"/>
</filter>
</defs>
</svg>
