<svg width="24" height="24" viewBox="0 0 24 24" fill="none" xmlns="http://www.w3.org/2000/svg">
<path d="M5.09106 6.4166C4.54088 6.36847 4.05585 6.77546 4.00771 7.32564C3.95958 7.87583 4.36657 8.36086 4.91675 8.40899L6.90914 8.5833C7.45932 8.63144 7.94436 8.22445 7.99249 7.67427C8.04063 7.12408 7.63363 6.63905 7.08345 6.59091L5.09106 6.4166Z" fill="black"/>
<path d="M16.0077 8.32564C16.0558 7.77546 16.5409 7.36847 17.0911 7.4166L19.0835 7.59091C19.6336 7.63905 20.0406 8.12408 19.9925 8.67427C19.9444 9.22445 19.4593 9.63144 18.9091 9.5833L16.9168 9.40899C16.3666 9.36086 15.9596 8.87583 16.0077 8.32564Z" fill="black"/>
<path d="M5.09106 15.0038C4.54088 14.9556 4.05585 15.3626 4.00771 15.9128C3.95958 16.463 4.36657 16.948 4.91675 16.9962L6.90914 17.1705C7.45932 17.2186 7.94436 16.8116 7.99249 16.2614C8.04063 15.7112 7.63363 15.2262 7.08345 15.1781L5.09106 15.0038Z" fill="black"/>
<path d="M16.0077 17.3256C16.0558 16.7755 16.5409 16.3685 17.0911 16.4166L19.0835 16.5909C19.6336 16.639 20.0406 17.1241 19.9925 17.6743C19.9444 18.2244 19.4593 18.6314 18.9091 18.5833L16.9168 18.409C16.3666 18.3609 15.9596 17.8758 16.0077 17.3256Z" fill="black"/>
<path fill-rule="evenodd" clip-rule="evenodd" d="M12 8.99996C13.6569 8.99996 15 10.3431 15 12C15 13.6568 13.6569 15 12 15C10.3431 15 9 13.6568 9 12C9 10.3431 10.3431 8.99996 12 8.99996ZM13 12C13 11.4477 12.5523 11 12 11C11.4477 11 11 11.4477 11 12C11 12.5522 11.4477 13 12 13C12.5523 13 13 12.5522 13 12Z" fill="black"/>
<path fill-rule="evenodd" clip-rule="evenodd" d="M5.24433 3.24155C2.9311 3.043 1 4.87584 1 7.16857V15.1596C1 17.2848 2.65497 19.0305 4.74824 19.2066C5.60626 19.2788 6.65879 19.3733 7.90243 19.4952C8.12536 19.517 8.62104 19.6182 9.33769 19.7839C9.80886 19.8929 10.3392 20.0209 10.8964 20.1554C11.1591 20.2188 11.4286 20.2838 11.6998 20.3488C12.5391 20.5498 13.3972 20.7506 14.1357 20.9017C14.8428 21.0464 15.5356 21.1667 15.9958 21.1686C17.1394 21.1735 18.2579 21.1519 19.2151 21.1227C21.3562 21.0573 23 19.2885 23 17.1811V9.19276C23 6.88035 21.0564 5.07283 18.7836 5.13426C17.931 5.1573 16.9751 5.17275 16.0042 5.16865C15.7734 5.16767 15.2712 5.09263 14.5366 4.94232C13.8335 4.79843 13.0034 4.60449 12.1657 4.40383C11.9033 4.34097 11.6395 4.2773 11.3793 4.21447L11.3782 4.21423C10.8155 4.07839 10.269 3.94647 9.78829 3.83531C9.10812 3.67802 8.47589 3.54182 8.09757 3.50473C6.99864 3.39699 6.04679 3.31043 5.24433 3.24155ZM3 7.16857C3 6.0188 3.95662 5.13838 5.07329 5.23422C5.86777 5.30242 6.81158 5.38824 7.90243 5.49518C8.12536 5.51704 8.62104 5.61817 9.33769 5.78389C9.80894 5.89287 10.3394 6.02092 10.8967 6.15545C11.1596 6.2189 11.4284 6.28379 11.6998 6.3488C12.5391 6.54984 13.3972 6.7506 14.1357 6.90172C14.8428 7.04641 15.5356 7.16668 15.9958 7.16863C16.9924 7.17284 17.9697 7.15699 18.8377 7.13353C20.0241 7.10146 21 8.04466 21 9.19276V17.1811C21 18.2426 20.1803 19.0923 19.1541 19.1236C18.2131 19.1523 17.1187 19.1734 16.0042 19.1686C15.7734 19.1677 15.2712 19.0926 14.5366 18.9423C13.8335 18.7984 13.0034 18.6045 12.1657 18.4038C11.903 18.3409 11.639 18.2772 11.3784 18.2143C10.8156 18.0784 10.269 17.9465 9.7883 17.8353C9.10812 17.678 8.47589 17.5418 8.09757 17.5047C6.84472 17.3819 5.78303 17.2866 4.91593 17.2136C3.83407 17.1226 3 16.2208 3 15.1596V7.16857Z" fill="black"/>
</svg>
