<svg width="25" height="24" viewBox="0 0 25 24" fill="none" xmlns="http://www.w3.org/2000/svg">
<path d="M12.5 7.5C13.0523 7.5 13.5 7.94772 13.5 8.5V12.5C13.5 13.0523 13.0523 13.5 12.5 13.5C11.9477 13.5 11.5 13.0523 11.5 12.5V8.5C11.5 7.94772 11.9477 7.5 12.5 7.5Z" fill="black"/>
<path fill-rule="evenodd" clip-rule="evenodd" d="M16.4999 1.99997C16.4999 1.44769 16.0522 0.999985 15.4999 1C14.9476 1.00001 14.4999 1.44774 14.4999 2.00003C14.4999 2.17334 14.4397 2.45556 14.2884 2.66571C14.1738 2.82487 13.9741 3 13.5 3C12.9702 3 12.4655 3.10956 12.0511 3.39767C11.6184 3.69848 11.3896 4.12054 11.2983 4.53514C11.2568 4.72402 11.2427 4.91329 11.2482 5.09737C7.42455 5.69822 4.5 9.00758 4.5 13V15C4.5 19.4183 8.08172 23 12.5 23C16.9183 23 20.5 19.4183 20.5 15V13C20.5 8.83371 17.3152 5.41128 13.2473 5.03444C13.2472 5.03067 13.2472 5.02703 13.2471 5.02354C13.2951 5.01214 13.3754 5 13.5 5C14.6259 5 15.4261 4.50847 15.9115 3.83429C16.3602 3.21111 16.5 2.49333 16.4999 1.99997ZM12.4813 7.00003C12.4942 7.00028 12.5071 7.00028 12.52 7.00003C15.8245 7.01084 18.5 9.69297 18.5 13V15C18.5 18.3137 15.8137 21 12.5 21C9.18629 21 6.5 18.3137 6.5 15V13C6.5 9.69253 9.17618 7.01012 12.4813 7.00003Z" fill="black"/>
</svg>
