<svg width="25" height="24" viewBox="0 0 25 24" fill="none" xmlns="http://www.w3.org/2000/svg">
<path fill-rule="evenodd" clip-rule="evenodd" d="M1.75 7.39991C1.75 5.19077 3.54086 3.3999 5.75 3.3999H15.75C17.9591 3.3999 19.75 5.19076 19.75 7.3999V11C19.75 11.1003 19.7352 11.1972 19.7077 11.2885C20.5736 11.7291 21.1667 12.6286 21.1667 13.6667V14.0245C21.955 14.399 22.5 15.2025 22.5 16.1333V18C22.5 19.1046 21.6046 20 20.5 20H16.5C15.4629 20 14.6101 19.2106 14.5099 18.1999C14.5066 18.1999 14.5033 18.1999 14.5 18.1999H11.75V18.6H13C13.5523 18.6 14 19.0477 14 19.6C14 20.1522 13.5523 20.6 13 20.6H8.5C7.94772 20.6 7.5 20.1522 7.5 19.6C7.5 19.0477 7.94772 18.6 8.5 18.6H9.75005V18.1999H5.75C3.54086 18.1999 1.75 16.409 1.75 14.1999V7.39991ZM14.5 16.1999V16.1333C14.5 15.2025 15.045 14.399 15.8333 14.0245V13.6667C15.8333 12.4523 16.645 11.4275 17.7555 11.1053C17.7519 11.0707 17.75 11.0356 17.75 11V7.3999C17.75 6.29533 16.8546 5.3999 15.75 5.3999H5.75C4.64543 5.3999 3.75 6.29533 3.75 7.39991V14.1999C3.75 15.3045 4.64543 16.1999 5.75 16.1999H14.5ZM17.8333 13.6667C17.8333 13.2985 18.1318 13 18.5 13C18.8682 13 19.1667 13.2985 19.1667 13.6667V13.8H17.8333V13.6667ZM16.5 16.1333C16.5 15.9492 16.6492 15.8 16.8333 15.8H20.1667C20.3508 15.8 20.5 15.9492 20.5 16.1333V18H16.5V16.1333Z" fill="black"/>
</svg>
