<svg width="25" height="24" viewBox="0 0 25 24" fill="none" xmlns="http://www.w3.org/2000/svg">
<path fill-rule="evenodd" clip-rule="evenodd" d="M16.75 13.5C16.75 12.5335 17.5335 11.75 18.5 11.75C19.4665 11.75 20.25 12.5335 20.25 13.5C20.25 14.4665 19.4665 15.25 18.5 15.25C17.5335 15.25 16.75 14.4665 16.75 13.5ZM18.5 13.75C18.6381 13.75 18.75 13.6381 18.75 13.5C18.75 13.3619 18.6381 13.25 18.5 13.25C18.3619 13.25 18.25 13.3619 18.25 13.5C18.25 13.6381 18.3619 13.75 18.5 13.75Z" fill="black"/>
<path fill-rule="evenodd" clip-rule="evenodd" d="M18.5 15.25C19.4665 15.25 20.25 16.0335 20.25 17C20.25 17.9665 19.4665 18.75 18.5 18.75C17.5335 18.75 16.75 17.9665 16.75 17C16.75 16.0335 17.5335 15.25 18.5 15.25ZM18.75 17C18.75 17.1381 18.6381 17.25 18.5 17.25C18.3619 17.25 18.25 17.1381 18.25 17C18.25 16.8619 18.3619 16.75 18.5 16.75C18.6381 16.75 18.75 16.8619 18.75 17Z" fill="black"/>
<path fill-rule="evenodd" clip-rule="evenodd" d="M1.75 7.39991C1.75 5.19077 3.54086 3.3999 5.75 3.3999H15.75C17.9591 3.3999 19.75 5.19076 19.75 7.3999V9.25H20.0975C21.6961 9.25 23.0139 10.5036 23.0938 12.1002L23.3938 18.1002C23.4794 19.8137 22.1132 21.25 20.3975 21.25H16.6025C15.4795 21.25 14.5062 20.6346 13.9918 19.7289C13.9285 20.2203 13.5086 20.6 13 20.6H8.5C7.94772 20.6 7.5 20.1522 7.5 19.6C7.5 19.0477 7.94772 18.6 8.5 18.6H9.75005V18.1999H5.75C3.54086 18.1999 1.75 16.409 1.75 14.1999V7.39991ZM13.6624 18.8508C13.6197 18.6407 13.599 18.4229 13.6029 18.1999H11.75V18.6H13C13.2541 18.6 13.486 18.6947 13.6624 18.8508ZM13.7013 16.1999L13.9062 12.1002C13.9861 10.5036 15.3039 9.25 16.9025 9.25H17.75V7.3999C17.75 6.29533 16.8546 5.3999 15.75 5.3999H5.75C4.64543 5.3999 3.75 6.29533 3.75 7.39991V14.1999C3.75 15.3045 4.64543 16.1999 5.75 16.1999H13.7013ZM15.9037 12.2001C15.9304 11.6679 16.3696 11.25 16.9025 11.25H20.0975C20.6304 11.25 21.0696 11.6679 21.0963 12.2001L21.3963 18.2001C21.4248 18.7712 20.9694 19.25 20.3975 19.25H16.6025C16.0306 19.25 15.5752 18.7712 15.6037 18.2001L15.9037 12.2001Z" fill="black"/>
</svg>
