<svg width="25" height="24" viewBox="0 0 25 24" fill="none" xmlns="http://www.w3.org/2000/svg">
<path fill-rule="evenodd" clip-rule="evenodd" d="M5.75 3.3999C3.54086 3.3999 1.75 5.19077 1.75 7.39991V14.1999C1.75 16.409 3.54086 18.1999 5.75 18.1999H9.75001V18.5999H7.99997C7.44768 18.5999 6.99997 19.0476 6.99997 19.5999C6.99997 20.1522 7.44768 20.5999 7.99997 20.5999H13.5C14.0522 20.5999 14.5 20.1522 14.5 19.5999C14.5 19.0476 14.0522 18.5999 13.5 18.5999H11.75V18.1999H14.6516C14.5621 18.3892 14.5029 18.604 14.5001 18.8402C14.4958 19.208 14.6296 19.5187 14.8049 19.7541C15.1199 20.177 15.6094 20.4171 15.9808 20.5593C16.7724 20.8625 17.7934 21 18.5 21C19.2066 21 20.2276 20.8625 21.0192 20.5593C21.3906 20.4171 21.8801 20.177 22.1951 19.7541C22.3704 19.5187 22.5042 19.208 22.4999 18.8402C22.4957 18.479 22.3595 18.168 22.1847 17.9216C21.6125 17.1145 20.5678 16.315 19.2847 16.0735C19.3092 16.0275 19.3327 15.981 19.3554 15.9339C19.366 15.9119 19.3757 15.8898 19.3845 15.8675C20.6096 15.49 21.5 14.349 21.5 13C21.5 11.7893 20.7828 10.746 19.75 10.272V7.3999C19.75 5.19076 17.9591 3.3999 15.75 3.3999H5.75ZM15.5 13C15.5 14.1573 16.1553 15.1615 17.115 15.6619C16.7571 15.9962 16.2769 16.1999 15.75 16.1999H5.75C4.64543 16.1999 3.75 15.3045 3.75 14.1999V7.39991C3.75 6.29533 4.64543 5.3999 5.75 5.3999H15.75C16.8546 5.3999 17.75 6.29533 17.75 7.3999V10.0945C16.4561 10.4275 15.5 11.6021 15.5 13ZM18.5 12C17.9477 12 17.5 12.4477 17.5 13C17.5 13.5523 17.9477 14 18.5 14C19.0523 14 19.5 13.5523 19.5 13C19.5 12.4477 19.0523 12 18.5 12ZM16.7671 18.7177C17.2782 18.898 18.0014 19 18.5 19C18.9986 19 19.7218 18.898 20.2329 18.7177C19.805 18.3221 19.175 18 18.5 18C17.825 18 17.195 18.3221 16.7671 18.7177Z" fill="black"/>
</svg>
