<svg width="27" height="29" viewBox="0 0 27 29" fill="none" xmlns="http://www.w3.org/2000/svg">
<g filter="url(#filter0_d_3849_182862)">
<path d="M14.5 4C14.5 3.44772 14.0523 3 13.5 3C12.9477 3 12.5 3.44772 12.5 4V11H5.5C4.94772 11 4.5 11.4477 4.5 12C4.5 12.5523 4.94772 13 5.5 13H12.5V20C12.5 20.5523 12.9477 21 13.5 21C14.0523 21 14.5 20.5523 14.5 20V13H21.5C22.0523 13 22.5 12.5523 22.5 12C22.5 11.4477 22.0523 11 21.5 11H14.5V4Z" fill="black"/>
</g>
<defs>
<filter id="filter0_d_3849_182862" x="-2.5" y="0" width="32" height="32" filterUnits="userSpaceOnUse" color-interpolation-filters="sRGB">
<feFlood flood-opacity="0" result="BackgroundImageFix"/>
<feColorMatrix in="SourceAlpha" type="matrix" values="0 0 0 0 0 0 0 0 0 0 0 0 0 0 0 0 0 0 127 0" result="hardAlpha"/>
<feOffset dy="4"/>
<feGaussianBlur stdDeviation="2"/>
<feComposite in2="hardAlpha" operator="out"/>
<feColorMatrix type="matrix" values="0 0 0 0 0 0 0 0 0 0 0 0 0 0 0 0 0 0 0.25 0"/>
<feBlend mode="normal" in2="BackgroundImageFix" result="effect1_dropShadow_3849_182862"/>
<feBlend mode="normal" in="SourceGraphic" in2="effect1_dropShadow_3849_182862" result="shape"/>
</filter>
</defs>
</svg>
