<svg width="24" height="24" viewBox="0 0 24 24" fill="none" xmlns="http://www.w3.org/2000/svg">
<path d="M16.3053 2.79999C14.8273 2.24306 13.2026 2.21171 11.7041 2.71119C8.97029 3.62246 7.10242 6.13661 7.00408 8.99998H4C3.44772 8.99998 3 9.4477 3 9.99998C3 10.5523 3.44772 11 4 11H7V12.5H4C3.44772 12.5 3 12.9477 3 13.5C3 14.0523 3.44772 14.5 4 14.5H7V14.7622C7 17.7234 8.89485 20.3524 11.7041 21.2888C13.2026 21.7883 14.8273 21.7569 16.3053 21.2L16.7795 21.0213C18.8923 20.2252 20.4669 18.4249 20.9744 16.2248C21.0986 15.6866 20.7629 15.1497 20.2248 15.0256C19.6866 14.9014 19.1497 15.237 19.0256 15.7752C18.6685 17.3231 17.5608 18.5897 16.0743 19.1498L15.6002 19.3284C14.5518 19.7234 13.3994 19.7457 12.3365 19.3914C10.344 18.7272 9 16.8625 9 14.7622V14.5H15C15.5523 14.5 16 14.0523 16 13.5C16 12.9477 15.5523 12.5 15 12.5H9V11H15C15.5523 11 16 10.5523 16 9.99998C16 9.4477 15.5523 8.99998 15 8.99998H9.00576C9.10283 6.99779 10.4195 5.24757 12.3365 4.60856C13.3994 4.25428 14.5518 4.27652 15.6002 4.67154L16.0743 4.85019C17.5608 5.4103 18.6685 6.67691 19.0256 8.22477C19.1497 8.76292 19.6866 9.09854 20.2248 8.97439C20.7629 8.85025 21.0986 8.31335 20.9744 7.7752C20.4669 5.57509 18.8923 3.77476 16.7795 2.97864L16.3053 2.79999Z" fill="black"/>
</svg>
