<svg width="25" height="24" viewBox="0 0 25 24" fill="none" xmlns="http://www.w3.org/2000/svg">
<path fill-rule="evenodd" clip-rule="evenodd" d="M13.5 3C13.5 2.44772 13.0523 2 12.5 2C11.9477 2 11.5 2.44772 11.5 3V4.05493C7.00005 4.55237 3.5 8.36745 3.5 13C3.5 17.9706 7.52944 22 12.5 22C17.4706 22 21.5 17.9706 21.5 13C21.5 8.36745 18 4.55237 13.5 4.05493V3ZM11.5 6.07089V11C11.5 11.5523 11.9477 12 12.5 12C13.0523 12 13.5 11.5523 13.5 11V6.07089C16.8923 6.55612 19.5 9.47353 19.5 13C19.5 16.866 16.366 20 12.5 20C8.63401 20 5.5 16.866 5.5 13C5.5 9.47353 8.10771 6.55612 11.5 6.07089Z" fill="black"/>
</svg>
