<svg width="29" height="30" viewBox="0 0 29 30" fill="none" xmlns="http://www.w3.org/2000/svg">
<g filter="url(#filter0_d_3849_182819)">
<path d="M14.6401 10.1449C14.9224 9.93322 14.9901 9.53791 14.7944 9.24434C14.5617 8.8953 14.0678 8.84639 13.7712 9.14303L13.2071 9.70711C12.8166 10.0976 12.1834 10.0976 11.7929 9.70711C11.4024 9.31658 11.4024 8.68342 11.7929 8.29289L12.357 7.72881C13.546 6.53975 15.5257 6.73577 16.4585 8.13494C17.243 9.3117 16.9715 10.8963 15.8401 11.7449L15.7916 11.7813C15.608 11.919 15.5 12.135 15.5 12.3645L15.5 12.5C15.5 13.0523 15.0523 13.5 14.5 13.5C13.9477 13.5 13.5 13.0523 13.5 12.5L13.5 12.3645C13.5 11.5055 13.9044 10.6967 14.5916 10.1813L14.6401 10.1449Z" fill="black"/>
<path d="M13.5 15.5C13.5 16.0523 13.9477 16.5 14.5 16.5C15.0523 16.5 15.5 16.0523 15.5 15.5C15.5 14.9477 15.0523 14.5 14.5 14.5C13.9477 14.5 13.5 14.9477 13.5 15.5Z" fill="black"/>
<path fill-rule="evenodd" clip-rule="evenodd" d="M4.5 12C4.5 6.47715 8.97715 2 14.5 2C20.0228 2 24.5 6.47715 24.5 12C24.5 17.5228 20.0228 22 14.5 22C8.97715 22 4.5 17.5228 4.5 12ZM14.5 4C10.0817 4 6.5 7.58172 6.5 12C6.5 16.4183 10.0817 20 14.5 20C18.9183 20 22.5 16.4183 22.5 12C22.5 7.58172 18.9183 4 14.5 4Z" fill="black"/>
</g>
<defs>
<filter id="filter0_d_3849_182819" x="-1.5" y="0" width="32" height="32" filterUnits="userSpaceOnUse" color-interpolation-filters="sRGB">
<feFlood flood-opacity="0" result="BackgroundImageFix"/>
<feColorMatrix in="SourceAlpha" type="matrix" values="0 0 0 0 0 0 0 0 0 0 0 0 0 0 0 0 0 0 127 0" result="hardAlpha"/>
<feOffset dy="4"/>
<feGaussianBlur stdDeviation="2"/>
<feComposite in2="hardAlpha" operator="out"/>
<feColorMatrix type="matrix" values="0 0 0 0 0 0 0 0 0 0 0 0 0 0 0 0 0 0 0.25 0"/>
<feBlend mode="normal" in2="BackgroundImageFix" result="effect1_dropShadow_3849_182819"/>
<feBlend mode="normal" in="SourceGraphic" in2="effect1_dropShadow_3849_182819" result="shape"/>
</filter>
</defs>
</svg>
