<svg width="25" height="24" viewBox="0 0 25 24" fill="none" xmlns="http://www.w3.org/2000/svg">
<path d="M2.5 6C2.5 3.79086 4.29086 2 6.5 2H8.5C9.05228 2 9.5 2.44772 9.5 3C9.5 3.55228 9.05228 4 8.5 4H6.5C5.39543 4 4.5 4.89543 4.5 6V8C4.5 8.55228 4.05228 9 3.5 9C2.94772 9 2.5 8.55228 2.5 8V6Z" fill="black"/>
<path d="M22.5 6C22.5 3.79086 20.7091 2 18.5 2H16.5C15.9477 2 15.5 2.44772 15.5 3C15.5 3.55228 15.9477 4 16.5 4H18.5C19.6046 4 20.5 4.89543 20.5 6V8C20.5 8.55228 20.9477 9 21.5 9C22.0523 9 22.5 8.55228 22.5 8V6Z" fill="black"/>
<path d="M6.5 22C4.29086 22 2.5 20.2091 2.5 18V16C2.5 15.4477 2.94772 15 3.5 15C4.05228 15 4.5 15.4477 4.5 16V18C4.5 19.1046 5.39543 20 6.5 20H8.5C9.05228 20 9.5 20.4477 9.5 21C9.5 21.5523 9.05228 22 8.5 22H6.5Z" fill="black"/>
<path d="M22.5 18C22.5 20.2091 20.7091 22 18.5 22H16.5C15.9477 22 15.5 21.5523 15.5 21C15.5 20.4477 15.9477 20 16.5 20H18.5C19.6046 20 20.5 19.1046 20.5 18V16C20.5 15.4477 20.9477 15 21.5 15C22.0523 15 22.5 15.4477 22.5 16V18Z" fill="black"/>
<path d="M2.5 12C1.94772 12 1.5 12.4477 1.5 13C1.5 13.5523 1.94772 14 2.5 14H22.5C23.0523 14 23.5 13.5523 23.5 13C23.5 12.4477 23.0523 12 22.5 12H2.5Z" fill="black"/>
</svg>
