<svg width="28" height="29" viewBox="0 0 28 29" fill="none" xmlns="http://www.w3.org/2000/svg">
<g filter="url(#filter0_d_3849_182858)">
<path fill-rule="evenodd" clip-rule="evenodd" d="M21.8697 14.2798C23.8351 13.3954 23.8351 10.6047 21.8697 9.72024L7.73045 3.35759C5.82614 2.50066 3.77271 4.21784 4.27918 6.24374L5.26325 10.18C5.49029 11.0882 6.20027 11.7803 7.08573 12C6.20027 12.2198 5.49029 12.9119 5.26325 13.8201L4.27918 17.7564C3.77271 19.7822 5.82614 21.4994 7.73045 20.6425L21.8697 14.2798ZM6.90972 5.18144L19.4732 10.835L7.65641 10.0726C7.43937 10.0586 7.25628 9.90593 7.20353 9.69494L6.21946 5.75866C6.11817 5.35349 6.52886 5.01005 6.90972 5.18144ZM7.65641 13.9275L19.4732 13.1651L6.90972 18.8186C6.52885 18.99 6.11817 18.6466 6.21946 18.2414L7.20353 14.3051C7.25628 14.0942 7.43937 13.9415 7.65641 13.9275Z" fill="black"/>
</g>
<defs>
<filter id="filter0_d_3849_182858" x="-2.5" y="0" width="32" height="32" filterUnits="userSpaceOnUse" color-interpolation-filters="sRGB">
<feFlood flood-opacity="0" result="BackgroundImageFix"/>
<feColorMatrix in="SourceAlpha" type="matrix" values="0 0 0 0 0 0 0 0 0 0 0 0 0 0 0 0 0 0 127 0" result="hardAlpha"/>
<feOffset dy="4"/>
<feGaussianBlur stdDeviation="2"/>
<feComposite in2="hardAlpha" operator="out"/>
<feColorMatrix type="matrix" values="0 0 0 0 0 0 0 0 0 0 0 0 0 0 0 0 0 0 0.25 0"/>
<feBlend mode="normal" in2="BackgroundImageFix" result="effect1_dropShadow_3849_182858"/>
<feBlend mode="normal" in="SourceGraphic" in2="effect1_dropShadow_3849_182858" result="shape"/>
</filter>
</defs>
</svg>
