<svg width="25" height="24" viewBox="0 0 25 24" fill="none" xmlns="http://www.w3.org/2000/svg">
<path d="M15.5 6.5C14.9477 6.5 14.5 6.94772 14.5 7.5C14.5 8.05228 14.9477 8.5 15.5 8.5H20C20.5523 8.5 21 8.05228 21 7.5C21 6.94772 20.5523 6.5 20 6.5H15.5Z" fill="black"/>
<path d="M10 7.5C10 6.94772 10.4477 6.5 11 6.5H13C13.5523 6.5 14 6.94772 14 7.5C14 8.05228 13.5523 8.5 13 8.5H11C10.4477 8.5 10 8.05228 10 7.5Z" fill="black"/>
<path fill-rule="evenodd" clip-rule="evenodd" d="M5.5 3.5C3.29086 3.5 1.5 5.29086 1.5 7.5C1.5 9.70914 3.29086 11.5 5.5 11.5H19.5C21.7091 11.5 23.5 9.70914 23.5 7.5C23.5 5.29086 21.7091 3.5 19.5 3.5H5.5ZM19.5 5.5C20.6046 5.5 21.5 6.39543 21.5 7.5C21.5 8.60457 20.6046 9.5 19.5 9.5H5.5C4.39543 9.5 3.5 8.60457 3.5 7.5C3.5 6.39543 4.39543 5.5 5.5 5.5H19.5Z" fill="black"/>
<path d="M14.5 16.5C14.5 15.9477 14.9477 15.5 15.5 15.5H20C20.5523 15.5 21 15.9477 21 16.5C21 17.0523 20.5523 17.5 20 17.5H15.5C14.9477 17.5 14.5 17.0523 14.5 16.5Z" fill="black"/>
<path d="M11 15.5C10.4477 15.5 10 15.9477 10 16.5C10 17.0523 10.4477 17.5 11 17.5H13C13.5523 17.5 14 17.0523 14 16.5C14 15.9477 13.5523 15.5 13 15.5H11Z" fill="black"/>
<path fill-rule="evenodd" clip-rule="evenodd" d="M5.5 12.5C3.29086 12.5 1.5 14.2909 1.5 16.5C1.5 18.7091 3.29086 20.5 5.5 20.5H19.5C21.7091 20.5 23.5 18.7091 23.5 16.5C23.5 14.2909 21.7091 12.5 19.5 12.5H5.5ZM19.5 14.5C20.6046 14.5 21.5 15.3954 21.5 16.5C21.5 17.6046 20.6046 18.5 19.5 18.5H5.5C4.39543 18.5 3.5 17.6046 3.5 16.5C3.5 15.3954 4.39543 14.5 5.5 14.5H19.5Z" fill="black"/>
</svg>
