<svg width="31" height="31" viewBox="0 0 31 31" fill="none" xmlns="http://www.w3.org/2000/svg">
<g filter="url(#filter0_d_3849_182856)">
<path fill-rule="evenodd" clip-rule="evenodd" d="M15.4994 6.00003C12.1857 6.00003 9.49938 8.68632 9.49938 12C9.49938 15.3137 12.1857 18 15.4994 18C18.8131 18 21.4994 15.3137 21.4994 12C21.4994 8.68632 18.8131 6.00003 15.4994 6.00003ZM11.4994 12C11.4994 9.79089 13.2902 8.00003 15.4994 8.00003C17.7085 8.00003 19.4994 9.79089 19.4994 12C19.4994 14.2092 17.7085 16 15.4994 16C13.2902 16 11.4994 14.2092 11.4994 12Z" fill="black"/>
<path fill-rule="evenodd" clip-rule="evenodd" d="M18.0012 2.02893C16.6063 0.679484 14.3925 0.679484 12.9976 2.02893C12.6433 2.37168 12.1506 2.53175 11.6625 2.46271C9.74082 2.1909 7.94984 3.49213 7.61451 5.40377C7.52934 5.88931 7.22487 6.30838 6.7894 6.53943C5.07495 7.44907 4.39085 9.55451 5.2432 11.2982C5.45969 11.741 5.45969 12.259 5.2432 12.7019C4.39085 14.4456 5.07495 16.551 6.7894 17.4606C7.22487 17.6917 7.52934 18.1107 7.61451 18.5963C7.94984 20.5079 9.74083 21.8092 11.6625 21.5373C12.1506 21.4683 12.6433 21.6284 12.9976 21.9711C14.3925 23.3206 16.6063 23.3206 18.0012 21.9711C18.3555 21.6284 18.8481 21.4683 19.3362 21.5373C21.2579 21.8092 23.0489 20.5079 23.3843 18.5963C23.4694 18.1107 23.7739 17.6917 24.2094 17.4606C25.9238 16.551 26.6079 14.4456 25.7556 12.7019C25.5391 12.259 25.5391 11.741 25.7556 11.2982C26.6079 9.5545 25.9238 7.44907 24.2094 6.53943C23.7739 6.30838 23.4694 5.88931 23.3843 5.40377C23.0489 3.49213 21.2579 2.1909 19.3362 2.46271C18.8481 2.53175 18.3555 2.37168 18.0012 2.02893ZM14.3882 3.46638C15.0077 2.867 15.991 2.867 16.6106 3.46638C17.4083 4.23805 18.5174 4.59844 19.6163 4.443C20.4699 4.32227 21.2654 4.90023 21.4143 5.74932C21.6061 6.84248 22.2916 7.78598 23.272 8.30615C24.0335 8.71019 24.3373 9.64535 23.9587 10.4198C23.4713 11.4169 23.4713 12.5831 23.9587 13.5802C24.3373 14.3547 24.0335 15.2899 23.272 15.6939C22.2916 16.2141 21.6061 17.1576 21.4143 18.2507C21.2654 19.0998 20.4699 19.6778 19.6163 19.5571C18.5174 19.4016 17.4083 19.762 16.6106 20.5337C15.991 21.1331 15.0077 21.1331 14.3882 20.5337C13.5905 19.762 12.4813 19.4016 11.3824 19.5571C10.5289 19.6778 9.73337 19.0998 9.58443 18.2507C9.39268 17.1576 8.70718 16.2141 7.72678 15.6939C6.96528 15.2899 6.66143 14.3547 7.04001 13.5802C7.52742 12.5831 7.52742 11.4169 7.04001 10.4198C6.66143 9.64535 6.96528 8.71019 7.72678 8.30615C8.70718 7.78598 9.39268 6.84248 9.58443 5.74932C9.73337 4.90024 10.5289 4.32227 11.3824 4.443C12.4813 4.59844 13.5905 4.23805 14.3882 3.46638Z" fill="black"/>
</g>
<defs>
<filter id="filter0_d_3849_182856" x="-0.5" y="0" width="32" height="32" filterUnits="userSpaceOnUse" color-interpolation-filters="sRGB">
<feFlood flood-opacity="0" result="BackgroundImageFix"/>
<feColorMatrix in="SourceAlpha" type="matrix" values="0 0 0 0 0 0 0 0 0 0 0 0 0 0 0 0 0 0 127 0" result="hardAlpha"/>
<feOffset dy="4"/>
<feGaussianBlur stdDeviation="2"/>
<feComposite in2="hardAlpha" operator="out"/>
<feColorMatrix type="matrix" values="0 0 0 0 0 0 0 0 0 0 0 0 0 0 0 0 0 0 0.25 0"/>
<feBlend mode="normal" in2="BackgroundImageFix" result="effect1_dropShadow_3849_182856"/>
<feBlend mode="normal" in="SourceGraphic" in2="effect1_dropShadow_3849_182856" result="shape"/>
</filter>
</defs>
</svg>
