<svg width="27" height="30" viewBox="0 0 27 30" fill="none" xmlns="http://www.w3.org/2000/svg">
<g filter="url(#filter0_d_3849_182855)">
<path fill-rule="evenodd" clip-rule="evenodd" d="M9.5 3V5.12602C11.2252 5.57006 12.5 7.13616 12.5 9C12.5 10.8638 11.2252 12.4299 9.5 12.874V21C9.5 21.5523 9.05228 22 8.5 22C7.94772 22 7.5 21.5523 7.5 21L7.5 12.874C5.77477 12.4299 4.5 10.8638 4.5 9C4.5 7.13616 5.77477 5.57006 7.5 5.12602L7.5 3C7.5 2.44772 7.94772 2 8.5 2C9.05228 2 9.5 2.44772 9.5 3ZM6.5 9C6.5 7.89543 7.39543 7 8.5 7C9.60457 7 10.5 7.89543 10.5 9C10.5 10.1046 9.60457 11 8.5 11C7.39543 11 6.5 10.1046 6.5 9Z" fill="black"/>
<path fill-rule="evenodd" clip-rule="evenodd" d="M17.5 18.874V21C17.5 21.5523 17.9477 22 18.5 22C19.0523 22 19.5 21.5523 19.5 21V18.874C21.2252 18.4299 22.5 16.8638 22.5 15C22.5 13.1362 21.2252 11.5701 19.5 11.126V3C19.5 2.44772 19.0523 2 18.5 2C17.9477 2 17.5 2.44772 17.5 3V11.126C15.7748 11.5701 14.5 13.1362 14.5 15C14.5 16.8638 15.7748 18.4299 17.5 18.874ZM20.5 15C20.5 13.8954 19.6046 13 18.5 13C17.3954 13 16.5 13.8954 16.5 15C16.5 16.1046 17.3954 17 18.5 17C19.6046 17 20.5 16.1046 20.5 15Z" fill="black"/>
</g>
<defs>
<filter id="filter0_d_3849_182855" x="-2.5" y="0" width="32" height="32" filterUnits="userSpaceOnUse" color-interpolation-filters="sRGB">
<feFlood flood-opacity="0" result="BackgroundImageFix"/>
<feColorMatrix in="SourceAlpha" type="matrix" values="0 0 0 0 0 0 0 0 0 0 0 0 0 0 0 0 0 0 127 0" result="hardAlpha"/>
<feOffset dy="4"/>
<feGaussianBlur stdDeviation="2"/>
<feComposite in2="hardAlpha" operator="out"/>
<feColorMatrix type="matrix" values="0 0 0 0 0 0 0 0 0 0 0 0 0 0 0 0 0 0 0.25 0"/>
<feBlend mode="normal" in2="BackgroundImageFix" result="effect1_dropShadow_3849_182855"/>
<feBlend mode="normal" in="SourceGraphic" in2="effect1_dropShadow_3849_182855" result="shape"/>
</filter>
</defs>
</svg>
