<svg width="29" height="30" viewBox="0 0 29 30" fill="none" xmlns="http://www.w3.org/2000/svg">
<g filter="url(#filter0_d_3849_182853)">
<path fill-rule="evenodd" clip-rule="evenodd" d="M20.5 2C18.2909 2 16.5 3.79086 16.5 6C16.5 6.17082 16.5107 6.33914 16.5315 6.50432C16.3869 6.62045 16.1985 6.76747 15.9788 6.92902C15.4429 7.32314 14.7538 7.77943 14.0787 8.09309C13.4987 8.36254 12.802 8.59639 12.2315 8.76609C11.9501 8.84976 11.7074 8.91553 11.5357 8.96018C11.45 8.98247 11.3824 8.99941 11.337 9.01059L11.2861 9.02298L11.2741 9.02583L11.2717 9.0264C11.2467 9.03227 11.2219 9.03908 11.1978 9.0467C10.4865 8.39658 9.53958 8 8.5 8C6.29086 8 4.5 9.79086 4.5 12C4.5 14.2091 6.29086 16 8.5 16C9.53956 16 10.4865 15.6034 11.1978 14.9533C11.234 14.9648 11.2713 14.9743 11.3095 14.9817L11.3106 14.9819L11.3205 14.9839L11.3663 14.9934C11.4078 15.0021 11.4707 15.0158 11.5512 15.0344C11.7125 15.0717 11.943 15.1286 12.2141 15.2056C12.7633 15.3617 13.4474 15.5917 14.0528 15.8944C14.665 16.2005 15.3643 16.6641 15.9305 17.0694C16.165 17.2373 16.3705 17.3907 16.5295 17.5118C16.51 17.6718 16.5 17.8347 16.5 18C16.5 20.2091 18.2909 22 20.5 22C22.7091 22 24.5 20.2091 24.5 18C24.5 15.7909 22.7091 14 20.5 14C19.1938 14 18.0339 14.6261 17.3039 15.5945C17.237 15.5456 17.1671 15.495 17.0946 15.4431C16.5026 15.0193 15.7019 14.4829 14.9472 14.1056C14.1858 13.7249 13.3699 13.4549 12.7608 13.2818C12.6033 13.2371 12.4576 13.1982 12.3277 13.1651C12.4397 12.7965 12.5 12.4053 12.5 12C12.5 11.5892 12.4381 11.1929 12.3231 10.8199C12.4647 10.781 12.6263 10.7352 12.8016 10.6831C13.4088 10.5025 14.2121 10.2364 14.9213 9.90691C15.7695 9.51287 16.5805 8.96917 17.1637 8.54021C17.217 8.501 17.2687 8.46254 17.3187 8.42502C18.0495 9.38233 19.2026 10 20.5 10C22.7091 10 24.5 8.20914 24.5 6C24.5 3.79086 22.7091 2 20.5 2ZM18.5 6C18.5 4.89543 19.3954 4 20.5 4C21.6046 4 22.5 4.89543 22.5 6C22.5 7.10457 21.6046 8 20.5 8C19.3954 8 18.5 7.10457 18.5 6ZM6.5 12C6.5 10.8954 7.39543 10 8.5 10C9.60457 10 10.5 10.8954 10.5 12C10.5 13.1046 9.60457 14 8.5 14C7.39543 14 6.5 13.1046 6.5 12ZM18.5 18C18.5 16.8954 19.3954 16 20.5 16C21.6046 16 22.5 16.8954 22.5 18C22.5 19.1046 21.6046 20 20.5 20C19.3954 20 18.5 19.1046 18.5 18Z" fill="black"/>
</g>
<defs>
<filter id="filter0_d_3849_182853" x="-0.5" y="0" width="32" height="32" filterUnits="userSpaceOnUse" color-interpolation-filters="sRGB">
<feFlood flood-opacity="0" result="BackgroundImageFix"/>
<feColorMatrix in="SourceAlpha" type="matrix" values="0 0 0 0 0 0 0 0 0 0 0 0 0 0 0 0 0 0 127 0" result="hardAlpha"/>
<feOffset dy="4"/>
<feGaussianBlur stdDeviation="2"/>
<feComposite in2="hardAlpha" operator="out"/>
<feColorMatrix type="matrix" values="0 0 0 0 0 0 0 0 0 0 0 0 0 0 0 0 0 0 0.25 0"/>
<feBlend mode="normal" in2="BackgroundImageFix" result="effect1_dropShadow_3849_182853"/>
<feBlend mode="normal" in="SourceGraphic" in2="effect1_dropShadow_3849_182853" result="shape"/>
</filter>
</defs>
</svg>
