<svg width="29" height="29" viewBox="0 0 29 29" fill="none" xmlns="http://www.w3.org/2000/svg">
<g filter="url(#filter0_d_3849_182823)">
<path fill-rule="evenodd" clip-rule="evenodd" d="M19.5623 2.81447C18.0282 2.00392 16.5 3.26041 16.5 4.7434C16.5 4.80762 16.4759 4.8757 16.4124 4.94123C16.3454 5.01022 16.245 5.06323 16.1302 5.07625C12.0056 5.54425 9.20357 8.08723 7.40487 10.9726C5.61507 13.8438 4.75604 17.1406 4.50616 19.3896C4.45577 19.843 4.7187 20.2731 5.14528 20.4349C5.57185 20.5968 6.0539 20.4494 6.31701 20.0767C7.19955 18.8264 8.75333 17.018 10.6143 15.5264C12.4961 14.0181 14.5497 12.9482 16.4574 12.9214L16.4591 12.9232C16.4757 12.9417 16.5 12.9864 16.5 13.0513C16.5 14.647 18.211 15.8519 19.7316 14.9396C20.9939 14.1822 22.4116 13.1527 23.3999 11.9716C24.3685 10.8138 25.1235 9.24957 24.4192 7.60606C23.4204 5.27566 21.2224 3.69153 19.5623 2.81447ZM18.5 4.7434C18.5 4.64747 18.5435 4.59759 18.5706 4.57942C18.5837 4.5706 18.5915 4.57009 18.5915 4.57009C18.5915 4.57009 18.5939 4.56994 18.598 4.57082C18.602 4.57169 18.612 4.57435 18.628 4.58283C20.1401 5.38174 21.8507 6.69009 22.5809 8.3939C22.8342 8.98496 22.668 9.72954 21.866 10.6881C21.0835 11.6233 19.8808 12.5176 18.7026 13.2246C18.6679 13.2454 18.6481 13.2462 18.6396 13.246C18.6276 13.2458 18.6094 13.2421 18.5876 13.2288C18.5444 13.2025 18.5 13.1466 18.5 13.0513C18.5 12.007 17.7167 10.9055 16.4405 10.9215C13.8617 10.9537 11.3695 12.358 9.36349 13.9658C8.64994 14.5377 7.9798 15.15 7.36847 15.7634C7.78592 14.5209 8.35516 13.2289 9.10211 12.0307C10.6924 9.47951 13.0247 7.44145 16.3557 7.06349C17.4756 6.93642 18.5 6.01821 18.5 4.7434Z" fill="black"/>
</g>
<defs>
<filter id="filter0_d_3849_182823" x="-2.5" y="0" width="32" height="32" filterUnits="userSpaceOnUse" color-interpolation-filters="sRGB">
<feFlood flood-opacity="0" result="BackgroundImageFix"/>
<feColorMatrix in="SourceAlpha" type="matrix" values="0 0 0 0 0 0 0 0 0 0 0 0 0 0 0 0 0 0 127 0" result="hardAlpha"/>
<feOffset dy="4"/>
<feGaussianBlur stdDeviation="2"/>
<feComposite in2="hardAlpha" operator="out"/>
<feColorMatrix type="matrix" values="0 0 0 0 0 0 0 0 0 0 0 0 0 0 0 0 0 0 0.25 0"/>
<feBlend mode="normal" in2="BackgroundImageFix" result="effect1_dropShadow_3849_182823"/>
<feBlend mode="normal" in="SourceGraphic" in2="effect1_dropShadow_3849_182823" result="shape"/>
</filter>
</defs>
</svg>
