<svg width="25" height="24" viewBox="0 0 25 24" fill="none" xmlns="http://www.w3.org/2000/svg">
<path d="M13.7426 11.8284L14.4497 11.1213C14.8402 10.7308 14.8402 10.0976 14.4497 9.7071C14.0592 9.31657 13.426 9.31657 13.0355 9.7071L12.3284 10.4142L11.6213 9.7071C11.2307 9.31657 10.5976 9.31657 10.207 9.7071C9.81652 10.0976 9.81652 10.7308 10.207 11.1213L10.9142 11.8284L10.207 12.5355C9.81652 12.926 9.81652 13.5592 10.207 13.9497C10.5976 14.3403 11.2307 14.3403 11.6213 13.9497L12.3284 13.2426L13.0355 13.9497C13.426 14.3403 14.0592 14.3403 14.4497 13.9497C14.8402 13.5592 14.8402 12.926 14.4497 12.5355L13.7426 11.8284Z" fill="black"/>
<path fill-rule="evenodd" clip-rule="evenodd" d="M13.9876 2.01874C13.0328 1.63617 11.9672 1.63617 11.0124 2.01874L7.38578 3.47172C7.37451 3.47624 7.36331 3.48096 7.3522 3.48589L5.80467 4.17237C4.44745 4.77443 3.49987 6.10003 3.5 7.64368C3.50017 9.6109 3.64199 12.9406 4.56685 15.2252C5.1818 16.7443 6.28937 18.0609 7.41503 19.1131C8.54877 20.1728 9.75663 21.0157 10.6451 21.5766C11.7836 22.2955 13.2164 22.2955 14.3549 21.5766C15.2434 21.0157 16.4512 20.1728 17.585 19.1131C18.7106 18.0609 19.8182 16.7443 20.4332 15.2252C21.358 12.9406 21.4998 9.6109 21.5 7.64368C21.5001 6.10003 20.5525 4.77443 19.1953 4.17237L17.6478 3.48589C17.6367 3.48096 17.6255 3.47624 17.6142 3.47172L13.9876 2.01874ZM11.7562 3.87527C12.2336 3.68399 12.7664 3.68399 13.2438 3.87527L16.8535 5.32148L18.3843 6.00057C19.0732 6.30612 19.5001 6.94886 19.5 7.64351C19.4998 9.62433 19.3415 12.5918 18.5793 14.4748C18.1173 15.6159 17.2387 16.6991 16.2193 17.652C15.2079 18.5974 14.1116 19.365 13.2871 19.8856C12.8009 20.1926 12.1991 20.1926 11.7129 19.8856C10.8884 19.365 9.79215 18.5974 8.78075 17.652C7.76127 16.6991 6.88268 15.6159 6.4207 14.4748C5.65846 12.5918 5.50017 9.62433 5.5 7.64351C5.49994 6.94886 5.92684 6.30612 6.61565 6.00057L8.14653 5.32148L11.7562 3.87527Z" fill="black"/>
</svg>
