<svg width="25" height="24" viewBox="0 0 25 24" fill="none" xmlns="http://www.w3.org/2000/svg">
<path d="M18.4998 2C19.0521 2 19.4998 2.44772 19.4998 3V21C19.4998 21.5523 19.0521 22 18.4998 22C17.9476 22 17.4998 21.5523 17.4998 21V3C17.4998 2.44772 17.9476 2 18.4998 2Z" fill="black"/>
<path d="M15.4998 9C15.4998 8.44772 15.0521 8 14.4998 8C13.9476 8 13.4998 8.44772 13.4998 9V21C13.4998 21.5523 13.9476 22 14.4998 22C15.0521 22 15.4998 21.5523 15.4998 21V9Z" fill="black"/>
<path d="M10.4998 12C11.0521 12 11.4998 12.4477 11.4998 13V21C11.4998 21.5523 11.0521 22 10.4998 22C9.94756 22 9.49985 21.5523 9.49985 21V13C9.49985 12.4477 9.94756 12 10.4998 12Z" fill="black"/>
<path d="M6.49985 16C7.05213 16 7.49985 16.4477 7.49985 17V21C7.49985 21.5523 7.05213 22 6.49985 22C5.94756 22 5.49985 21.5523 5.49985 21V17C5.49985 16.4477 5.94756 16 6.49985 16Z" fill="black"/>
<path d="M6.62117 4.70705C6.23064 4.31652 5.59748 4.31652 5.20696 4.70705C4.81643 5.09757 4.81643 5.73074 5.20696 6.12126L5.91406 6.82837L5.20696 7.53548C4.81643 7.926 4.81643 8.55917 5.20696 8.94969C5.59748 9.34021 6.23064 9.34021 6.62117 8.94969L7.32828 8.24258L8.03538 8.94969C8.42591 9.34021 9.05907 9.34021 9.4496 8.94969C9.84012 8.55917 9.84012 7.926 9.4496 7.53548L8.74249 6.82837L9.4496 6.12126C9.84012 5.73074 9.84012 5.09757 9.4496 4.70705C9.05907 4.31652 8.42591 4.31652 8.03538 4.70705L7.32828 5.41416L6.62117 4.70705Z" fill="black"/>
</svg>
