<svg width="30" height="30" viewBox="0 0 30 30" fill="none" xmlns="http://www.w3.org/2000/svg">
<g filter="url(#filter0_d_3849_182822)">
<path fill-rule="evenodd" clip-rule="evenodd" d="M10 4C10.5523 4 11 3.55228 11 3C11 2.44772 10.5523 2 10 2H8.5C6.29086 2 4.5 3.79086 4.5 6V18C4.5 20.2091 6.29086 22 8.5 22H10C10.5523 22 11 21.5523 11 21C11 20.4477 10.5523 20 10 20H8.5C7.39543 20 6.5 19.1046 6.5 18L6.5 6C6.5 4.89543 7.39543 4 8.5 4H10ZM9.79289 12.7071C9.40237 12.3166 9.40237 11.6834 9.79289 11.2929L13.7929 7.29289C14.1834 6.90237 14.8166 6.90237 15.2071 7.29289C15.5976 7.68342 15.5976 8.31658 15.2071 8.70711L12.9142 11L24.5 11C25.0523 11 25.5 11.4477 25.5 12C25.5 12.5523 25.0523 13 24.5 13L12.9142 13L15.2071 15.2929C15.5976 15.6834 15.5976 16.3166 15.2071 16.7071C14.8166 17.0976 14.1834 17.0976 13.7929 16.7071L9.79289 12.7071Z" fill="black"/>
</g>
<defs>
<filter id="filter0_d_3849_182822" x="-1.5" y="0" width="32" height="32" filterUnits="userSpaceOnUse" color-interpolation-filters="sRGB">
<feFlood flood-opacity="0" result="BackgroundImageFix"/>
<feColorMatrix in="SourceAlpha" type="matrix" values="0 0 0 0 0 0 0 0 0 0 0 0 0 0 0 0 0 0 127 0" result="hardAlpha"/>
<feOffset dy="4"/>
<feGaussianBlur stdDeviation="2"/>
<feComposite in2="hardAlpha" operator="out"/>
<feColorMatrix type="matrix" values="0 0 0 0 0 0 0 0 0 0 0 0 0 0 0 0 0 0 0.25 0"/>
<feBlend mode="normal" in2="BackgroundImageFix" result="effect1_dropShadow_3849_182822"/>
<feBlend mode="normal" in="SourceGraphic" in2="effect1_dropShadow_3849_182822" result="shape"/>
</filter>
</defs>
</svg>
