<svg width="25" height="24" viewBox="0 0 25 24" fill="none" xmlns="http://www.w3.org/2000/svg">
<path d="M19.5 3C19.5 2.44772 19.0523 2 18.5 2C17.9477 2 17.5 2.44772 17.5 3V21C17.5 21.5523 17.9477 22 18.5 22C19.0523 22 19.5 21.5523 19.5 21V3Z" fill="black"/>
<path d="M14.5 8C15.0523 8 15.5 8.44772 15.5 9V21C15.5 21.5523 15.0523 22 14.5 22C13.9477 22 13.5 21.5523 13.5 21V9C13.5 8.44772 13.9477 8 14.5 8Z" fill="black"/>
<path d="M11.5 13C11.5 12.4477 11.0523 12 10.5 12C9.94772 12 9.5 12.4477 9.5 13V21C9.5 21.5523 9.94772 22 10.5 22C11.0523 22 11.5 21.5523 11.5 21V13Z" fill="black"/>
<path d="M7.5 17C7.5 16.4477 7.05228 16 6.5 16C5.94772 16 5.5 16.4477 5.5 17V21C5.5 21.5523 5.94772 22 6.5 22C7.05228 22 7.5 21.5523 7.5 21V17Z" fill="black"/>
</svg>
