<svg width="30" height="30" viewBox="0 0 30 30" fill="none" xmlns="http://www.w3.org/2000/svg">
<g filter="url(#filter0_d_3849_182821)">
<path d="M10 4C10.5523 4 11 3.55228 11 3C11 2.44772 10.5523 2 10 2H8.5C6.29086 2 4.5 3.79086 4.5 6V18C4.5 20.2091 6.29086 22 8.5 22H10C10.5523 22 11 21.5523 11 21C11 20.4477 10.5523 20 10 20H8.5C7.39543 20 6.5 19.1046 6.5 18L6.5 6C6.5 4.89543 7.39543 4 8.5 4H10Z" fill="black"/>
<path d="M25.2071 12.7071C25.5976 12.3166 25.5976 11.6834 25.2071 11.2929L21.2071 7.29289C20.8166 6.90237 20.1834 6.90237 19.7929 7.29289C19.4024 7.68342 19.4024 8.31658 19.7929 8.70711L22.0858 11L10.5 11C9.94771 11 9.5 11.4477 9.5 12C9.5 12.5523 9.94771 13 10.5 13L22.0858 13L19.7929 15.2929C19.4024 15.6834 19.4024 16.3166 19.7929 16.7071C20.1834 17.0976 20.8166 17.0976 21.2071 16.7071L25.2071 12.7071Z" fill="black"/>
</g>
<defs>
<filter id="filter0_d_3849_182821" x="-1.5" y="0" width="32" height="32" filterUnits="userSpaceOnUse" color-interpolation-filters="sRGB">
<feFlood flood-opacity="0" result="BackgroundImageFix"/>
<feColorMatrix in="SourceAlpha" type="matrix" values="0 0 0 0 0 0 0 0 0 0 0 0 0 0 0 0 0 0 127 0" result="hardAlpha"/>
<feOffset dy="4"/>
<feGaussianBlur stdDeviation="2"/>
<feComposite in2="hardAlpha" operator="out"/>
<feColorMatrix type="matrix" values="0 0 0 0 0 0 0 0 0 0 0 0 0 0 0 0 0 0 0.25 0"/>
<feBlend mode="normal" in2="BackgroundImageFix" result="effect1_dropShadow_3849_182821"/>
<feBlend mode="normal" in="SourceGraphic" in2="effect1_dropShadow_3849_182821" result="shape"/>
</filter>
</defs>
</svg>
