<svg width="25" height="24" viewBox="0 0 25 24" fill="none" xmlns="http://www.w3.org/2000/svg">
<path d="M9 6C8.44772 6 8 6.44772 8 7C8 7.55228 8.44772 8 9 8H15C15.5523 8 16 7.55228 16 7C16 6.44772 15.5523 6 15 6H9Z" fill="black"/>
<path fill-rule="evenodd" clip-rule="evenodd" d="M7.5 2C5.29086 2 3.5 3.79086 3.5 6V18C3.5 20.2091 5.29086 22 7.5 22H17.5C19.7091 22 21.5 20.2091 21.5 18V8.7997C21.5 7.69406 21.0424 6.63774 20.2358 5.88155L17.2494 3.08185C16.508 2.3868 15.5299 2 14.5137 2H7.5ZM5.5 6C5.5 4.89543 6.39543 4 7.5 4H14.5137C15.0218 4 15.5108 4.1934 15.8815 4.54093L18.8679 7.34062C19.2712 7.71872 19.5 8.24688 19.5 8.7997V18C19.5 19.1046 18.6046 20 17.5 20H7.5C6.39543 20 5.5 19.1046 5.5 18V6Z" fill="black"/>
</svg>
