<svg width="25" height="24" viewBox="0 0 25 24" fill="none" xmlns="http://www.w3.org/2000/svg">
<path fill-rule="evenodd" clip-rule="evenodd" d="M9.00065 8C9.00065 6.067 10.5677 4.5 12.5007 4.5C14.4336 4.5 16.0007 6.067 16.0007 8C16.0007 9.933 14.4336 11.5 12.5007 11.5C10.5677 11.5 9.00065 9.933 9.00065 8ZM12.5007 6.5C11.6722 6.5 11.0007 7.17157 11.0007 8C11.0007 8.82843 11.6722 9.5 12.5007 9.5C13.3291 9.5 14.0007 8.82843 14.0007 8C14.0007 7.17157 13.3291 6.5 12.5007 6.5Z" fill="black"/>
<path fill-rule="evenodd" clip-rule="evenodd" d="M12.5007 12C10.2915 12 8.50065 13.7909 8.50065 16C8.50065 18.2091 10.2915 20 12.5007 20C14.7098 20 16.5007 18.2091 16.5007 16C16.5007 13.7909 14.7098 12 12.5007 12ZM10.5007 16C10.5007 14.8954 11.3961 14 12.5007 14C13.6052 14 14.5007 14.8954 14.5007 16C14.5007 17.1046 13.6052 18 12.5007 18C11.3961 18 10.5007 17.1046 10.5007 16Z" fill="black"/>
<path fill-rule="evenodd" clip-rule="evenodd" d="M4.35939 4.80025C4.46583 2.67142 6.2229 1 8.3544 1H16.6469C18.7784 1 20.5355 2.67141 20.6419 4.80025L21.3419 18.8002C21.4562 21.085 19.6345 23 17.3469 23H7.6544C5.36681 23 3.54515 21.085 3.65939 18.8002L4.35939 4.80025ZM8.3544 3C7.28865 3 6.41012 3.83571 6.3569 4.90013L5.6569 18.9001C5.59978 20.0425 6.51061 21 7.6544 21H17.3469C18.4907 21 19.4015 20.0425 19.3444 18.9001L18.6444 4.90013C18.5912 3.83571 17.7127 3 16.6469 3H8.3544Z" fill="black"/>
</svg>
