<svg width="25" height="24" viewBox="0 0 25 24" fill="none" xmlns="http://www.w3.org/2000/svg">
<path d="M7 8C6.44772 8 6 8.44772 6 9C6 9.55228 6.44772 10 7 10H8V13C8 13.5523 8.44772 14 9 14C9.55228 14 10 13.5523 10 13V10H11C11.5523 10 12 9.55228 12 9C12 8.44772 11.5523 8 11 8H7Z" fill="black"/>
<path d="M13.5528 8.10557C14.0468 7.85858 14.6474 8.05881 14.8944 8.55279L16 10.7639L17.1056 8.55279C17.3526 8.05881 17.9532 7.85858 18.4472 8.10557C18.9412 8.35256 19.1414 8.95324 18.8944 9.44721L16.8944 13.4472C16.725 13.786 16.3788 14 16 14C15.6212 14 15.275 13.786 15.1056 13.4472L13.1056 9.44721C12.8586 8.95324 13.0588 8.35256 13.5528 8.10557Z" fill="black"/>
<path fill-rule="evenodd" clip-rule="evenodd" d="M5.5 2C3.29086 2 1.5 3.79086 1.5 6V16C1.5 18.2091 3.29086 20 5.5 20H11C10.4477 20 10 20.4477 10 21C10 21.5523 10.4477 22 11 22H14C14.5523 22 15 21.5523 15 21C15 20.4477 14.5523 20 14 20H19.5C21.7091 20 23.5 18.2091 23.5 16V6C23.5 3.79086 21.7091 2 19.5 2H5.5ZM3.5 6C3.5 4.89543 4.39543 4 5.5 4H19.5C20.6046 4 21.5 4.89543 21.5 6V16C21.5 17.1046 20.6046 18 19.5 18H5.5C4.39543 18 3.5 17.1046 3.5 16V6Z" fill="black"/>
</svg>
