<svg width="29" height="31" viewBox="0 0 29 31" fill="none" xmlns="http://www.w3.org/2000/svg">
<g filter="url(#filter0_d_3849_182818)">
<path d="M15.2071 2.29289C14.8166 1.90237 14.1834 1.90237 13.7929 2.29289L9.79289 6.29289C9.40237 6.68342 9.40237 7.31658 9.79289 7.70711C10.1834 8.09763 10.8166 8.09763 11.2071 7.70711L13.5 5.41421V17C13.5 17.5523 13.9477 18 14.5 18C15.0523 18 15.5 17.5523 15.5 17V5.41421L17.7929 7.70711C18.1834 8.09763 18.8166 8.09763 19.2071 7.70711C19.5976 7.31658 19.5976 6.68342 19.2071 6.29289L15.2071 2.29289Z" fill="black"/>
<path d="M6.5 17.5C6.5 16.9477 6.05228 16.5 5.5 16.5C4.94772 16.5 4.5 16.9477 4.5 17.5V19C4.5 21.2091 6.29086 23 8.5 23H20.5C22.7091 23 24.5 21.2091 24.5 19V17.5C24.5 16.9477 24.0523 16.5 23.5 16.5C22.9477 16.5 22.5 16.9477 22.5 17.5V19C22.5 20.1046 21.6046 21 20.5 21H8.5C7.39543 21 6.5 20.1046 6.5 19V17.5Z" fill="black"/>
</g>
<defs>
<filter id="filter0_d_3849_182818" x="-1.5" y="0" width="32" height="32" filterUnits="userSpaceOnUse" color-interpolation-filters="sRGB">
<feFlood flood-opacity="0" result="BackgroundImageFix"/>
<feColorMatrix in="SourceAlpha" type="matrix" values="0 0 0 0 0 0 0 0 0 0 0 0 0 0 0 0 0 0 127 0" result="hardAlpha"/>
<feOffset dy="4"/>
<feGaussianBlur stdDeviation="2"/>
<feComposite in2="hardAlpha" operator="out"/>
<feColorMatrix type="matrix" values="0 0 0 0 0 0 0 0 0 0 0 0 0 0 0 0 0 0 0.25 0"/>
<feBlend mode="normal" in2="BackgroundImageFix" result="effect1_dropShadow_3849_182818"/>
<feBlend mode="normal" in="SourceGraphic" in2="effect1_dropShadow_3849_182818" result="shape"/>
</filter>
</defs>
</svg>
