<svg width="24" height="24" viewBox="0 0 24 24" fill="none" xmlns="http://www.w3.org/2000/svg">
<path fill-rule="evenodd" clip-rule="evenodd" d="M13.9999 3C10.6862 3 7.99989 5.68629 7.99989 9C7.99989 12.3137 10.6862 15 13.9999 15C17.3136 15 19.9999 12.3137 19.9999 9C19.9999 5.68629 17.3136 3 13.9999 3ZM9.99989 9C9.99989 6.79086 11.7908 5 13.9999 5C16.209 5 17.9999 6.79086 17.9999 9C17.9999 11.2091 16.209 13 13.9999 13C11.7908 13 9.99989 11.2091 9.99989 9Z" fill="black"/>
<path d="M8.1553 20.5272C7.86413 20.9965 7.24765 21.1409 6.77835 20.8497C6.30905 20.5586 6.16465 19.9421 6.45582 19.4728C7.82522 17.2656 10.6267 15 13.9999 15C17.3731 15 20.1746 17.2656 21.544 19.4728C21.8352 19.9421 21.6908 20.5586 21.2215 20.8497C20.7522 21.1409 20.1357 20.9965 19.8445 20.5272C18.7224 18.7185 16.4842 17 13.9999 17C11.5156 17 9.27745 18.7185 8.1553 20.5272Z" fill="black"/>
<path d="M7.89775 6.55972C8.14091 7.05559 7.93605 7.6547 7.44018 7.89786C6.53151 8.34344 5.99989 9.15179 5.99989 10C5.99989 10.8482 6.53151 11.6566 7.44018 12.1021C7.93605 12.3453 8.14091 12.9444 7.89775 13.4403C7.65459 13.9362 7.05548 14.141 6.55961 13.8979C5.0828 13.1737 3.99989 11.7335 3.99989 10C3.99989 8.26647 5.0828 6.82632 6.55961 6.10214C7.05548 5.85898 7.65459 6.06384 7.89775 6.55972Z" fill="black"/>
<path d="M4.1553 20.5272C3.86413 20.9965 3.24765 21.1409 2.77835 20.8497C2.30905 20.5586 2.16465 19.9421 2.45582 19.4728C3.03491 18.5394 3.96145 17.7604 4.99513 17.1559C5.47189 16.8772 6.08437 17.0377 6.36315 17.5144C6.64194 17.9912 6.48144 18.6037 6.00468 18.8824C5.14097 19.3875 4.5055 19.9627 4.1553 20.5272Z" fill="black"/>
</svg>
