<svg width="29" height="30" viewBox="0 0 29 30" fill="none" xmlns="http://www.w3.org/2000/svg">
<g filter="url(#filter0_d_3849_182817)">
<path d="M18.9412 9.90267C19.3033 9.54183 19.2944 8.96541 18.9213 8.61519C18.5482 8.26498 17.9522 8.2736 17.5901 8.63444L12.7835 13.4241L11.4099 12.0553C11.0478 11.6945 10.4518 11.6859 10.0787 12.0361C9.70564 12.3863 9.69673 12.9627 10.0588 13.3236L12.108 15.3656C12.2853 15.5422 12.529 15.6419 12.7835 15.6419C13.0381 15.6419 13.2818 15.5422 13.4591 15.3656L18.9412 9.90267Z" fill="black"/>
<path fill-rule="evenodd" clip-rule="evenodd" d="M16.8552 2.92149C15.542 1.69284 13.458 1.69284 12.1448 2.92149C11.8112 3.23356 11.3475 3.3793 10.888 3.31644C9.07887 3.06896 7.39283 4.2537 7.07715 5.99422C6.99697 6.4363 6.71034 6.81785 6.30039 7.02822C4.68639 7.85643 4.04238 9.77339 4.84479 11.361C5.04859 11.7642 5.04859 12.2358 4.84479 12.639C4.04238 14.2266 4.6864 16.1436 6.30039 16.9718C6.71034 17.1821 6.99697 17.5637 7.07715 18.0058C7.39283 19.7463 9.07887 20.931 10.888 20.6836C11.3475 20.6207 11.8112 20.7664 12.1448 21.0785C13.458 22.3072 15.542 22.3072 16.8552 21.0785C17.1888 20.7664 17.6525 20.6207 18.112 20.6836C19.9211 20.931 21.6072 19.7463 21.9229 18.0058C22.003 17.5637 22.2897 17.1821 22.6996 16.9718C24.3136 16.1436 24.9576 14.2266 24.1552 12.639C23.9514 12.2358 23.9514 11.7642 24.1552 11.361C24.9576 9.77339 24.3136 7.85643 22.6996 7.02822C22.2897 6.81785 22.003 6.4363 21.9229 5.99422C21.6072 4.2537 19.9211 3.06896 18.112 3.31644C17.6525 3.3793 17.1888 3.23356 16.8552 2.92149ZM13.4539 4.23026C14.0372 3.68453 14.9628 3.68453 15.5461 4.23026C16.297 4.93285 17.3412 5.26098 18.3757 5.11946C19.1793 5.00953 19.9281 5.53576 20.0684 6.30884C20.2489 7.30414 20.8942 8.16318 21.8172 8.63679C22.534 9.00465 22.8201 9.8561 22.4637 10.5612C22.0048 11.4691 22.0048 12.5309 22.4637 13.4388C22.8201 14.1439 22.534 14.9953 21.8172 15.3632C20.8942 15.8368 20.2489 16.6959 20.0684 17.6912C19.9281 18.4642 19.1793 18.9905 18.3757 18.8805C17.3412 18.739 16.297 19.0671 15.5461 19.7697C14.9628 20.3155 14.0372 20.3155 13.4539 19.7697C12.703 19.0671 11.6588 18.739 10.6243 18.8805C9.82074 18.9905 9.07186 18.4642 8.93164 17.6912C8.75112 16.6959 8.1058 15.8368 7.18284 15.3632C6.46596 14.9953 6.17991 14.1439 6.53631 13.4388C6.99516 12.5309 6.99516 11.4691 6.53631 10.5612C6.17991 9.8561 6.46596 9.00465 7.18284 8.63679C8.1058 8.16318 8.75112 7.30414 8.93164 6.30884C9.07186 5.53576 9.82074 5.00953 10.6243 5.11946C11.6588 5.26098 12.703 4.93285 13.4539 4.23026Z" fill="black"/>
</g>
<defs>
<filter id="filter0_d_3849_182817" x="-1.5" y="0" width="32" height="32" filterUnits="userSpaceOnUse" color-interpolation-filters="sRGB">
<feFlood flood-opacity="0" result="BackgroundImageFix"/>
<feColorMatrix in="SourceAlpha" type="matrix" values="0 0 0 0 0 0 0 0 0 0 0 0 0 0 0 0 0 0 127 0" result="hardAlpha"/>
<feOffset dy="4"/>
<feGaussianBlur stdDeviation="2"/>
<feComposite in2="hardAlpha" operator="out"/>
<feColorMatrix type="matrix" values="0 0 0 0 0 0 0 0 0 0 0 0 0 0 0 0 0 0 0.25 0"/>
<feBlend mode="normal" in2="BackgroundImageFix" result="effect1_dropShadow_3849_182817"/>
<feBlend mode="normal" in="SourceGraphic" in2="effect1_dropShadow_3849_182817" result="shape"/>
</filter>
</defs>
</svg>
