<svg width="25" height="24" viewBox="0 0 25 24" fill="none" xmlns="http://www.w3.org/2000/svg">
<path d="M12.5007 5C11.1875 5 9.88715 5.25866 8.67389 5.7612C7.46063 6.26375 6.35824 7.00035 5.42966 7.92893C4.50107 8.85752 3.76448 9.95991 3.26193 11.1732C3.05058 11.6834 3.29288 12.2684 3.80313 12.4797C4.31337 12.6911 4.89834 12.4488 5.10969 11.9385C5.51173 10.9679 6.101 10.086 6.84387 9.34315C7.58674 8.60028 8.46865 8.011 9.43926 7.60896C10.4099 7.20693 11.4501 7 12.5007 7C13.5513 7 14.5916 7.20693 15.5622 7.60896C16.5328 8.011 17.4147 8.60028 18.1576 9.34315C18.9004 10.086 19.4897 10.9679 19.8918 11.9385C20.1031 12.4488 20.6881 12.6911 21.1983 12.4797C21.7086 12.2684 21.9509 11.6834 21.7395 11.1732C21.237 9.95991 20.5004 8.85752 19.5718 7.92893C18.6432 7.00035 17.5408 6.26375 16.3276 5.7612C15.1143 5.25866 13.8139 5 12.5007 5Z" fill="black"/>
<path d="M12.5008 8C11.5815 8 10.6713 8.18106 9.82199 8.53284C8.97271 8.88463 8.20104 9.40024 7.55103 10.0503C6.90102 10.7003 6.3854 11.4719 6.03362 12.3212C5.90826 12.6239 5.80459 12.9342 5.72306 13.25C5.58498 13.7847 5.90655 14.3302 6.4413 14.4682C6.97605 14.6063 7.52148 14.2847 7.65955 13.75C7.71778 13.5245 7.79184 13.3028 7.88138 13.0866C8.13265 12.48 8.50095 11.9288 8.96524 11.4645C9.42954 11.0002 9.98073 10.6319 10.5874 10.3806C11.194 10.1293 11.8442 10 12.5008 10C13.1574 10 13.8076 10.1293 14.4142 10.3806C15.0208 10.6319 15.572 11.0002 16.0363 11.4645C16.5006 11.9288 16.8689 12.48 17.1202 13.0866C17.2097 13.3028 17.2838 13.5245 17.342 13.75C17.4801 14.2847 18.0255 14.6063 18.5603 14.4682C19.095 14.3302 19.4166 13.7847 19.2785 13.25C19.197 12.9342 19.0933 12.6239 18.9679 12.3212C18.6162 11.4719 18.1005 10.7003 17.4505 10.0503C16.8005 9.40024 16.0288 8.88463 15.1796 8.53284C14.3303 8.18106 13.42 8 12.5008 8Z" fill="black"/>
<path d="M10.97 11.3045C11.4554 11.1035 11.9755 11 12.5008 11C13.0261 11 13.5462 11.1035 14.0315 11.3045C14.5168 11.5055 14.9578 11.8001 15.3292 12.1716C15.7006 12.543 15.9953 12.984 16.1963 13.4693C16.3116 13.7477 16.3948 14.0376 16.4448 14.3333C16.5369 14.8779 16.17 15.394 15.6255 15.486C15.0809 15.5781 14.5649 15.2112 14.4728 14.6667C14.4478 14.5188 14.4062 14.3738 14.3485 14.2346C14.248 13.992 14.1007 13.7715 13.915 13.5858C13.7293 13.4001 13.5088 13.2528 13.2661 13.1522C13.0235 13.0517 12.7634 13 12.5008 13C12.2381 13 11.9781 13.0517 11.7354 13.1522C11.4928 13.2528 11.2723 13.4001 11.0866 13.5858C10.9009 13.7715 10.7535 13.992 10.653 14.2346C10.5954 14.3738 10.5538 14.5188 10.5288 14.6667C10.4367 15.2112 9.92064 15.5781 9.37607 15.486C8.83151 15.394 8.46468 14.8779 8.55673 14.3333C8.60672 14.0376 8.68994 13.7477 8.80526 13.4693C9.00628 12.984 9.30092 12.543 9.67235 12.1716C10.0438 11.8001 10.4847 11.5055 10.97 11.3045Z" fill="black"/>
<path d="M12.5007 18C13.3292 18 14.0007 17.3284 14.0007 16.5C14.0007 15.6716 13.3292 15 12.5007 15C11.6723 15 11.0008 15.6716 11.0008 16.5C11.0008 17.3284 11.6723 18 12.5007 18Z" fill="black"/>
</svg>
