<svg width="24" height="24" viewBox="0 0 24 24" fill="none" xmlns="http://www.w3.org/2000/svg">
<path d="M7.81381 3.91872C7.4928 3.4693 6.86825 3.36521 6.41884 3.68622C5.96943 4.00723 5.86534 4.63178 6.18634 5.08119L11.0001 11.8204V12H8.00008C7.44779 12 7.00008 12.4477 7.00008 13C7.00008 13.5522 7.44779 14 8.00008 14H11.0001V14.5H8.00008C7.44779 14.5 7.00008 14.9477 7.00008 15.5C7.00008 16.0522 7.44779 16.5 8.00008 16.5H11.0001V20.5C11.0001 21.0522 11.4478 21.5 12.0001 21.5C12.5524 21.5 13.0001 21.0522 13.0001 20.5V16.5H16.0001C16.5524 16.5 17.0001 16.0522 17.0001 15.5C17.0001 14.9477 16.5524 14.5 16.0001 14.5H13.0001V14H16.0001C16.5524 14 17.0001 13.5522 17.0001 13C17.0001 12.4477 16.5524 12 16.0001 12H13.0001V11.8204L17.8138 5.08119C18.1348 4.63178 18.0307 4.00723 17.5813 3.68622C17.1319 3.36521 16.5074 3.4693 16.1863 3.91872L12.0001 9.77949L7.81381 3.91872Z" fill="black"/>
</svg>
