<svg width="29" height="29" viewBox="0 0 29 29" fill="none" xmlns="http://www.w3.org/2000/svg">
<g filter="url(#filter0_d_3849_182815)">
<path d="M10.5 9C9.94772 9 9.5 9.44771 9.5 10C9.5 10.5523 9.94772 11 10.5 11H16.5C17.0523 11 17.5 10.5523 17.5 10C17.5 9.44771 17.0523 9 16.5 9H10.5Z" fill="black"/>
<path fill-rule="evenodd" clip-rule="evenodd" d="M4.5 10C4.5 5.02944 8.52944 1 13.5 1C18.4706 1 22.5 5.02944 22.5 10C22.5 12.125 21.7635 14.078 20.5319 15.6177L24.2071 19.2929C24.5976 19.6834 24.5976 20.3166 24.2071 20.7071C23.8166 21.0976 23.1834 21.0976 22.7929 20.7071L19.1177 17.0319C17.578 18.2635 15.625 19 13.5 19C8.52944 19 4.5 14.9706 4.5 10ZM13.5 3C9.63401 3 6.5 6.13401 6.5 10C6.5 13.866 9.63401 17 13.5 17C17.366 17 20.5 13.866 20.5 10C20.5 6.13401 17.366 3 13.5 3Z" fill="black"/>
</g>
<defs>
<filter id="filter0_d_3849_182815" x="-0.5" y="0" width="32" height="32" filterUnits="userSpaceOnUse" color-interpolation-filters="sRGB">
<feFlood flood-opacity="0" result="BackgroundImageFix"/>
<feColorMatrix in="SourceAlpha" type="matrix" values="0 0 0 0 0 0 0 0 0 0 0 0 0 0 0 0 0 0 127 0" result="hardAlpha"/>
<feOffset dy="4"/>
<feGaussianBlur stdDeviation="2"/>
<feComposite in2="hardAlpha" operator="out"/>
<feColorMatrix type="matrix" values="0 0 0 0 0 0 0 0 0 0 0 0 0 0 0 0 0 0 0.25 0"/>
<feBlend mode="normal" in2="BackgroundImageFix" result="effect1_dropShadow_3849_182815"/>
<feBlend mode="normal" in="SourceGraphic" in2="effect1_dropShadow_3849_182815" result="shape"/>
</filter>
</defs>
</svg>
