<svg width="30" height="30" viewBox="0 0 30 30" fill="none" xmlns="http://www.w3.org/2000/svg">
<g filter="url(#filter0_d_3849_182816)">
<path d="M13.5 6C14.0523 6 14.5 6.44772 14.5 7V9H16.5C17.0523 9 17.5 9.44772 17.5 10C17.5 10.5523 17.0523 11 16.5 11H14.5V13C14.5 13.5523 14.0523 14 13.5 14C12.9477 14 12.5 13.5523 12.5 13V11H10.5C9.94772 11 9.5 10.5523 9.5 10C9.5 9.44772 9.94772 9 10.5 9H12.5V7C12.5 6.44772 12.9477 6 13.5 6Z" fill="black"/>
<path fill-rule="evenodd" clip-rule="evenodd" d="M4.5 10C4.5 5.02944 8.52944 1 13.5 1C18.4706 1 22.5 5.02944 22.5 10C22.5 12.125 21.7635 14.078 20.5319 15.6177L25.2071 20.2929C25.5976 20.6834 25.5976 21.3166 25.2071 21.7071C24.8166 22.0976 24.1834 22.0976 23.7929 21.7071L19.1177 17.0319C17.578 18.2635 15.625 19 13.5 19C8.52944 19 4.5 14.9706 4.5 10ZM13.5 3C9.63401 3 6.5 6.13401 6.5 10C6.5 13.866 9.63401 17 13.5 17C17.366 17 20.5 13.866 20.5 10C20.5 6.13401 17.366 3 13.5 3Z" fill="black"/>
</g>
<defs>
<filter id="filter0_d_3849_182816" x="-0.5" y="0" width="32" height="32" filterUnits="userSpaceOnUse" color-interpolation-filters="sRGB">
<feFlood flood-opacity="0" result="BackgroundImageFix"/>
<feColorMatrix in="SourceAlpha" type="matrix" values="0 0 0 0 0 0 0 0 0 0 0 0 0 0 0 0 0 0 127 0" result="hardAlpha"/>
<feOffset dy="4"/>
<feGaussianBlur stdDeviation="2"/>
<feComposite in2="hardAlpha" operator="out"/>
<feColorMatrix type="matrix" values="0 0 0 0 0 0 0 0 0 0 0 0 0 0 0 0 0 0 0.25 0"/>
<feBlend mode="normal" in2="BackgroundImageFix" result="effect1_dropShadow_3849_182816"/>
<feBlend mode="normal" in="SourceGraphic" in2="effect1_dropShadow_3849_182816" result="shape"/>
</filter>
</defs>
</svg>
